<?xml version="1.0" encoding="utf-8"?>
<!-- Generator: Adobe Illustrator 16.0.3, SVG Export Plug-In . SVG Version: 6.00 Build 0)  -->
<!DOCTYPE svg PUBLIC "-//W3C//DTD SVG 1.1//EN" "http://www.w3.org/Graphics/SVG/1.1/DTD/svg11.dtd">
<svg version="1.1" id="Ebene_1" xmlns="http://www.w3.org/2000/svg" xmlns:xlink="http://www.w3.org/1999/xlink" x="0px" y="0px"
	 width="273px" height="119px" viewBox="0 0 273 119" enable-background="new 0 0 273 119" xml:space="preserve">
<rect x="-41" y="-21" fill="#FFFFFF" width="351" height="216"/>
<g display="none">
	<polygon display="inline" fill="#FFCC00" points="62.232,71.273 63.936,71.273 63.936,93.994 59.96,93.994 59.96,71.273 	"/>
	<polygon display="inline" fill="#FF0000" points="62.232,48.44 63.936,48.44 63.936,71.273 59.96,71.273 59.96,48.44 	"/>
	<g display="inline">
		<path d="M49.614,33.776c1.163,1.839,2.072,1.808,3.448,1.808c-1.138-0.872-1.89-1.988-2.249-2.558l-2.125-3.399
			c-0.208-1.05-0.75-2.032-1.563-2.762c0.273-0.104,0.5-0.212,0.638-0.316c-1.388,0-2.762-0.705-3.519-0.705
			c-0.486,0-0.799,0.291-0.799,0.675c0.031,0.427,0.472,0.863,1.286,0.863c0.185,0,0.42-0.024,0.68-0.067
			c0.44,0.614,0.797,1.17,0.797,1.962c0,1.488-1.779,2.648-3.577,2.648c-0.101,0-0.197-0.004-0.299-0.012
			c-0.162-0.368-0.704-0.988-0.704-1.692c0-1.183,0.771-2.149,0.771-3.32c0-0.728-0.354-1.178-0.491-1.365
			c0.221-0.205,0.461-0.457,0.518-0.628c-0.127,0.055-0.279,0.063-0.502,0.063c-0.861,0-1.562-0.225-2.247-0.225
			c-0.389,0-0.496,0.121-0.496,0.236c0,0.042,0.007,0.085,0.018,0.105c-0.145-0.057-0.282-0.094-0.444-0.125
			c-0.202-0.038-0.419-0.058-0.651-0.058c-0.831,0-1.127,0.349-1.127,0.647c0,0.253,0.199,0.715,0.425,1.066
			c0.324-0.163,0.713-0.273,0.892-0.273c0.44,0,0.833,0.42,1.041,0.918c-0.296,0.036-0.353,0.049-0.653,0.049
			c-0.809,0-1.36-0.29-1.474-0.29c-0.011,0-0.033,0.005-0.033,0.023c0,0.113,0.23,0.414,0.683,0.579
			c0.596,0.218,1.488,0.309,1.638,0.334c0,0.026-0.151,0.308-0.32,0.362c-0.036,0.012-0.064,0.013-0.105,0.004
			c-0.623-0.123-0.797-0.175-1.587-0.476c-0.024-0.009-0.039,0.006-0.039,0.031c0,0.313,0.81,1.002,1.533,1.266
			c-0.604,0.772-1.359,1.563-1.717,2.768c-0.1,0.008-0.197,0.012-0.3,0.012c-1.796,0-3.576-1.16-3.576-2.648
			c0-0.792,0.356-1.348,0.798-1.962c0.258,0.043,0.494,0.067,0.679,0.067c0.814,0,1.255-0.436,1.287-0.863
			c0-0.385-0.313-0.675-0.801-0.675c-0.756,0-2.13,0.705-3.518,0.705c0.137,0.104,0.365,0.212,0.638,0.316
			c-0.813,0.729-1.355,1.711-1.563,2.762l-2.124,3.399c-0.357,0.57-1.112,1.686-2.25,2.558c1.375,0,2.286,0.031,3.449-1.808
			l1.088-1.743c0.081,0.226,0.181,0.446,0.296,0.662l-2.166,3.465c-0.36,0.575-1.107,1.682-2.249,2.558
			c1.375,0,2.286,0.032,3.448-1.806l1.865-2.985c0.14,0.147,0.286,0.294,0.442,0.433l-2.632,4.212
			c-0.361,0.576-1.104,1.68-2.25,2.556c1.375,0,2.286,0.033,3.449-1.806l2.565-4.106c0.17,0.106,0.343,0.21,0.521,0.308l-3.131,5.01
			c-0.361,0.577-1.105,1.677-2.248,2.556c1.374,0,2.285,0.032,3.448-1.806l3.224-5.161c0.19,0.073,0.383,0.143,0.581,0.207
			l-3.643,5.831c-0.356,0.568-1.117,1.689-2.248,2.556c1.374,0,2.286,0.031,3.448-1.806l3.883-6.215
			c0.04,0.007,0.079,0.014,0.118,0.021c0.105,0.336,0.18,0.649,0.18,0.962c0,1.952-1.283,3.677-2.82,5.009
			c0.098,0.043,0.27,0.058,0.428,0.058c0.317,0,0.523-0.017,0.666-0.042c-0.356,0.81-1.121,1.856-1.508,2.398
			c-0.503-0.091-1.235-0.163-1.716-0.163c-0.501,0-0.558,0.294-0.558,0.556c0,0.456,0.213,0.818,0.461,1.021
			c0.092-0.233,0.281-0.545,1.208-0.545c0.018,0,0.049,0.002,0.094,0.006c-0.272,0.302-1.121,0.987-1.121,1.54
			c0,0.366,0.402,0.915,0.93,0.915c-0.031-0.118-0.027-0.227-0.027-0.308c0-0.448,0.396-0.972,0.731-1.337
			c-0.011,0.109-0.006,0.098-0.006,0.224c0,1.059,0.096,1.544,0.768,1.544c0.329,0,0.557-0.181,0.635-0.235
			c-0.436-0.401-0.458-0.716-0.458-1.31c0-0.154,0-0.305,0.003-0.514c0.002-0.135,0-0.315-0.022-0.445
			c0.241-0.033,0.337-0.033,0.522-0.033c0,0,0.955-0.075,1.185,0.42c0.259-0.238,0.634-0.573,0.634-0.942
			c0-0.244-0.116-0.521-0.607-0.521c-0.185,0-0.771,0.115-1.261,0.115c0.132-0.293,0.718-1.15,1.225-1.771
			c0.078,0.241,0.198,0.501,0.463,0.714c0.036-0.399,0.271-1.664,0.896-2.403c0.072,0.499,0.171,1.012,0.171,2.093
			c0,2.628-0.631,4.569-1.974,4.939c0.175,0.304,0.543,0.577,0.927,0.577c0.49,0,0.758-0.555,1.03-1.078
			c0.142,0.386,0.535,1.333,0.928,1.333s0.785-0.948,0.927-1.333c0.273,0.523,0.54,1.078,1.031,1.078
			c0.382,0,0.753-0.273,0.927-0.577c-1.341-0.37-1.974-2.312-1.974-4.939c0-1.081,0.097-1.594,0.17-2.093
			c0.624,0.739,0.859,2.003,0.896,2.403c0.267-0.213,0.387-0.474,0.463-0.714c0.508,0.621,1.094,1.478,1.225,1.771
			c-0.49,0-1.075-0.115-1.26-0.115c-0.491,0-0.608,0.276-0.608,0.521c0,0.369,0.377,0.704,0.636,0.942
			c0.229-0.496,1.184-0.42,1.184-0.42c0.184,0,0.282,0,0.522,0.033c-0.022,0.13-0.023,0.31-0.023,0.445
			c0.002,0.208,0.003,0.36,0.004,0.514c0,0.594-0.022,0.909-0.459,1.31c0.079,0.055,0.307,0.235,0.635,0.235
			c0.673,0,0.768-0.486,0.768-1.544c0-0.126,0.004-0.115-0.004-0.224c0.335,0.365,0.731,0.889,0.731,1.337
			c0,0.081,0.004,0.189-0.028,0.308c0.529,0,0.931-0.548,0.931-0.915c0-0.553-0.849-1.238-1.121-1.54
			c0.044-0.004,0.076-0.006,0.093-0.006c0.929,0,1.115,0.312,1.208,0.545c0.249-0.202,0.461-0.565,0.461-1.021
			c0-0.262-0.057-0.556-0.559-0.556c-0.479,0-1.212,0.071-1.715,0.163c-0.387-0.542-1.151-1.588-1.509-2.398
			c0.145,0.026,0.35,0.042,0.666,0.042c0.16,0,0.33-0.015,0.429-0.058c-1.539-1.332-2.82-3.057-2.82-5.009
			c0-0.313,0.075-0.626,0.18-0.962c0.039-0.008,0.078-0.015,0.117-0.021l3.882,6.215c1.162,1.836,2.074,1.806,3.448,1.806
			c-1.131-0.867-1.89-1.988-2.245-2.556l-3.646-5.831c0.198-0.063,0.392-0.133,0.583-0.207l3.224,5.161
			c1.163,1.838,2.074,1.806,3.449,1.806c-1.145-0.878-1.888-1.979-2.249-2.556l-3.131-5.01c0.178-0.098,0.353-0.202,0.52-0.308
			l2.566,4.106c1.162,1.839,2.073,1.806,3.447,1.806c-1.143-0.876-1.886-1.98-2.248-2.556l-2.63-4.212
			c0.154-0.139,0.302-0.284,0.439-0.433l1.866,2.985c1.162,1.838,2.073,1.806,3.448,1.806c-1.143-0.876-1.888-1.983-2.249-2.558
			l-2.167-3.465c0.118-0.216,0.216-0.436,0.298-0.662L49.614,33.776z M32.226,29.785c0-1.294,0.941-2.319,1.273-2.608
			c0.08,0.02,0.159,0.039,0.238,0.055c-0.352,0.43-0.974,1.15-0.974,2.105c0,1.895,2.025,3.54,4.318,3.54
			c-0.016,0.162-0.023,0.333-0.023,0.508c0,0.28,0.016,0.541,0.043,0.786C34.509,34.156,32.226,32.052,32.226,29.785z
			 M35.738,45.318l-0.014,0.044h0.045c0.728,0,1.082-0.052,1.315-0.086c0.125-0.015,0.212-0.029,0.308-0.029
			c0.188,0,0.332,0.018,0.332,0.249c0,0.156-0.182,0.402-0.358,0.546c-0.269-0.253-0.64-0.303-1.185-0.303
			c-0.254,0-0.589,0.046-0.768,0.071l-0.027,0.003l-0.032,0.005l0.01,0.085c0.022,0.151,0.048,0.338,0.048,0.591l-0.003,0.23
			l-0.002,0.285c0,0.618,0.084,0.971,0.301,1.237c-0.057,0.021-0.147,0.038-0.206,0.038c-0.384,0-0.495-0.167-0.495-1.274
			c0-0.222-0.012-0.43-0.02-0.569l-0.011-0.205l-0.049,0.038c-0.57,0.435-1.157,1.211-1.193,1.792
			c-0.171-0.111-0.358-0.359-0.358-0.55c0-0.317,0.477-0.793,1.029-1.344l0.317-0.317l0.04-0.042l-0.104-0.025
			c-0.119-0.031-0.339-0.086-0.526-0.086c-0.62,0-1.007,0.117-1.247,0.377c-0.084-0.125-0.157-0.414-0.157-0.583
			c0-0.11,0.022-0.188,0.067-0.232c0.053-0.052,0.137-0.052,0.21-0.052h0.016c0.682,0,1.498,0.123,1.816,0.174l0.019,0.005
			l0.012-0.016c0.054-0.074,1.354-1.806,1.693-2.725c0.078-0.029,0.146-0.051,0.281-0.051c0.256,0,0.327,0.173,0.401,0.437
			C36.428,44.022,35.922,44.79,35.738,45.318z M42.751,42.598c0.136,0,0.203,0.022,0.282,0.051c0.337,0.918,1.637,2.65,1.693,2.725
			l0.011,0.016l0.02-0.005c0.319-0.051,1.134-0.174,1.815-0.174h0.016c0.074,0,0.158,0,0.212,0.052
			c0.043,0.044,0.065,0.122,0.065,0.232c0,0.169-0.071,0.459-0.157,0.583c-0.24-0.261-0.626-0.377-1.246-0.377
			c-0.188,0-0.407,0.056-0.526,0.086l-0.049,0.011l-0.055,0.014l0.358,0.359c0.551,0.551,1.03,1.027,1.03,1.344
			c0,0.191-0.187,0.439-0.358,0.55c-0.035-0.582-0.623-1.358-1.193-1.792l-0.049-0.037l-0.009,0.204
			c-0.008,0.139-0.021,0.347-0.021,0.569c0,1.106-0.112,1.274-0.496,1.274c-0.058,0-0.148-0.017-0.204-0.038
			c0.215-0.266,0.302-0.619,0.302-1.237l-0.005-0.285l-0.002-0.23c0-0.253,0.027-0.44,0.046-0.591l0.011-0.085l-0.06-0.008
			c-0.18-0.025-0.512-0.071-0.768-0.071c-0.546,0-0.917,0.05-1.185,0.303c-0.178-0.144-0.36-0.39-0.36-0.546
			c0-0.231,0.144-0.249,0.333-0.249c0.095,0,0.184,0.014,0.306,0.029c0.235,0.034,0.589,0.086,1.317,0.086h0.045l-0.015-0.044
			c-0.185-0.528-0.691-1.295-1.503-2.283C42.425,42.771,42.496,42.598,42.751,42.598z M39.741,27.489
			c-0.08-0.336-0.253-0.682-0.473-0.942c-0.2-0.236-0.53-0.516-0.974-0.516c-0.204,0-0.545,0.095-0.761,0.188
			c-0.082-0.147-0.239-0.503-0.239-0.664c0-0.164,0.278-0.332,0.811-0.332c1.172,0,1.873,0.53,1.873,1.418
			C39.977,26.953,39.854,27.237,39.741,27.489z M40.268,26.333c-0.042-0.251-0.138-0.478-0.283-0.673
			c0.006-0.229,0.102-0.449,0.47-0.269c-0.199,0.205-0.044,0.566-0.044,0.566s0.408-0.19,0.324-0.459
			C41.34,25.645,40.906,26.458,40.268,26.333z M42.548,34.171c0.031-0.254,0.049-0.517,0.049-0.786c0-0.146,0.001-0.316-0.017-0.509
			c2.263-0.032,4.249-1.663,4.249-3.539c0-0.955-0.621-1.675-0.974-2.105c0.08-0.017,0.16-0.036,0.24-0.055
			c0.331,0.289,1.272,1.313,1.272,2.608C47.367,32.036,45.118,34.125,42.548,34.171z"/>
	</g>
	<polygon display="inline" points="63.936,25.834 63.936,48.554 62.232,48.554 59.96,48.554 59.96,25.834 	"/>
	<path display="inline" d="M77.392,32.38c0,0.941-0.235,1.608-0.706,2.003c-0.428,0.359-1.117,0.539-2.067,0.539h-2.272v-9.281
		h2.465c0.83,0,1.44,0.18,1.828,0.539c0.39,0.36,0.585,0.954,0.585,1.785c0,0.582-0.099,1.026-0.296,1.335
		c-0.204,0.351-0.568,0.607-1.091,0.77c0.599,0.146,1.014,0.415,1.246,0.809C77.289,31.221,77.392,31.722,77.392,32.38z
		 M76.134,28.029c0-0.574-0.141-0.976-0.423-1.207c-0.249-0.206-0.651-0.308-1.207-0.308h-1.078v3.17h1.143
		C75.611,29.685,76.134,29.133,76.134,28.029z M76.274,32.329c0-0.607-0.129-1.059-0.39-1.354c-0.262-0.296-0.692-0.443-1.292-0.443
		h-1.167v3.517h0.987c0.651,0,1.114-0.107,1.386-0.321C76.117,33.48,76.274,33.014,76.274,32.329z"/>
	<path display="inline" d="M83.477,34.922h-1.014L82.45,34.1c-0.393,0.616-0.937,0.924-1.63,0.924c-1.154,0-1.733-0.663-1.733-1.989
		v-4.583H80.1v4.134c0,0.531,0.044,0.907,0.128,1.13c0.147,0.368,0.446,0.552,0.899,0.552c0.848,0,1.271-0.629,1.271-1.887v-3.928
		h1.027v5.045C83.425,34.002,83.442,34.477,83.477,34.922z"/>
	<path display="inline" d="M89.677,34.922h-1.015v-4.134c0-0.557-0.037-0.937-0.115-1.143c-0.144-0.376-0.44-0.565-0.885-0.565
		c-0.437,0-0.774,0.214-1.014,0.642c-0.197,0.368-0.295,0.805-0.295,1.31v3.89h-1.014v-5.058c0-0.574-0.018-1.044-0.051-1.413h1
		v0.886c0.359-0.685,0.92-1.026,1.682-1.026c1.139,0,1.708,0.672,1.708,2.015L89.677,34.922L89.677,34.922z"/>
	<path display="inline" d="M95.851,34.922h-0.987l-0.013-0.745c-0.368,0.564-0.874,0.847-1.516,0.847
		c-0.83,0-1.398-0.372-1.706-1.116c-0.198-0.497-0.295-1.267-0.295-2.311c0-0.984,0.115-1.729,0.346-2.234
		c0.309-0.701,0.852-1.052,1.631-1.052c0.65,0,1.139,0.252,1.462,0.757V25.64H95.8v8.061C95.8,33.934,95.817,34.34,95.851,34.922z
		 M94.812,31.751c0-0.881-0.064-1.51-0.193-1.887c-0.18-0.539-0.526-0.809-1.041-0.809c-0.504,0-0.847,0.282-1.026,0.847
		c-0.122,0.368-0.18,0.941-0.18,1.72c0,0.847,0.068,1.468,0.206,1.861c0.18,0.531,0.5,0.796,0.962,0.796
		c0.548,0,0.912-0.269,1.092-0.809C94.752,33.121,94.812,32.547,94.812,31.751z"/>
	<path display="inline" d="M101.885,31.829h-3.39v0.437c0,0.659,0.06,1.134,0.18,1.425c0.171,0.419,0.506,0.629,1.001,0.629
		c0.745,0,1.134-0.475,1.168-1.425h1c-0.06,1.437-0.783,2.156-2.169,2.156c-0.898,0-1.514-0.303-1.85-0.912
		c-0.247-0.453-0.372-1.185-0.372-2.195c0-1.146,0.108-1.968,0.321-2.464c0.334-0.779,0.993-1.168,1.977-1.168
		c0.925,0,1.541,0.342,1.848,1.026c0.189,0.428,0.283,1.16,0.283,2.195v0.296H101.885z M100.858,31.135
		c0-0.625-0.044-1.065-0.128-1.322c-0.154-0.513-0.483-0.77-0.989-0.77c-0.701,0-1.098,0.419-1.194,1.258
		c-0.033,0.291-0.051,0.569-0.051,0.834H100.858z"/>
	<path display="inline" d="M107.083,33.151c0,1.258-0.677,1.887-2.028,1.887c-1.326,0-1.978-0.697-1.951-2.092h1.013
		c0,0.128,0.005,0.249,0.014,0.359c0.06,0.676,0.377,1.014,0.949,1.014c0.65,0,0.976-0.334,0.976-1.001
		c0-0.359-0.103-0.642-0.308-0.847c-0.128-0.137-0.415-0.325-0.861-0.564c-0.606-0.326-0.992-0.565-1.153-0.719
		c-0.326-0.3-0.489-0.698-0.489-1.194c0-0.556,0.185-0.979,0.552-1.271c0.343-0.274,0.799-0.411,1.374-0.411
		c0.667,0,1.143,0.156,1.426,0.468c0.281,0.313,0.432,0.794,0.448,1.444h-1.013c0-0.804-0.304-1.207-0.911-1.207
		c-0.265,0-0.475,0.082-0.629,0.244c-0.154,0.162-0.23,0.376-0.23,0.642c0,0.291,0.125,0.539,0.373,0.745
		c0.127,0.119,0.431,0.308,0.911,0.564c0.522,0.282,0.882,0.522,1.078,0.719C106.928,32.256,107.083,32.663,107.083,33.151z"/>
	<path display="inline" d="M112.615,34.922h-0.987l-0.014-0.847c-0.438,0.633-1.014,0.949-1.733,0.949
		c-0.548,0-0.972-0.179-1.271-0.539c-0.265-0.342-0.397-0.795-0.397-1.361c0-0.916,0.351-1.532,1.053-1.848
		c0.462-0.214,1.224-0.326,2.285-0.334V30.66c0-0.53-0.042-0.898-0.129-1.104c-0.137-0.342-0.428-0.513-0.872-0.513
		c-0.308,0-0.565,0.085-0.77,0.256c-0.206,0.171-0.308,0.41-0.308,0.719v0.063h-1.014v-0.063c0-0.591,0.213-1.032,0.642-1.323
		c0.368-0.257,0.864-0.385,1.488-0.385c0.746,0,1.262,0.18,1.553,0.539c0.275,0.325,0.411,0.864,0.411,1.618v2.387
		C112.551,33.634,112.573,34.323,112.615,34.922z M111.551,32.419v-0.77h-0.258c-1.351,0-2.027,0.462-2.027,1.386
		c0,0.831,0.317,1.245,0.949,1.245c0.481,0,0.836-0.205,1.066-0.616C111.46,33.339,111.551,32.924,111.551,32.419z"/>
	<path display="inline" d="M118.777,34.922h-1.014v-4.134c0-0.557-0.037-0.937-0.115-1.143c-0.145-0.376-0.44-0.565-0.886-0.565
		c-0.437,0-0.774,0.214-1.014,0.642c-0.198,0.368-0.295,0.805-0.295,1.31v3.89h-1.014v-5.058c0-0.574-0.019-1.044-0.052-1.413h1
		v0.886c0.36-0.685,0.921-1.026,1.682-1.026c1.139,0,1.707,0.672,1.707,2.015L118.777,34.922L118.777,34.922z"/>
	<path display="inline" d="M124.272,33.151c0,1.258-0.676,1.887-2.028,1.887c-1.327,0-1.978-0.697-1.951-2.092h1.014
		c0,0.128,0.005,0.249,0.014,0.359c0.06,0.676,0.377,1.014,0.949,1.014c0.65,0,0.977-0.334,0.977-1.001
		c0-0.359-0.104-0.642-0.309-0.847c-0.129-0.137-0.415-0.325-0.861-0.564c-0.606-0.326-0.992-0.565-1.154-0.719
		c-0.325-0.3-0.487-0.698-0.487-1.194c0-0.556,0.185-0.979,0.552-1.271c0.343-0.274,0.799-0.411,1.373-0.411
		c0.668,0,1.143,0.156,1.426,0.468c0.281,0.313,0.432,0.794,0.448,1.444h-1.014c0-0.804-0.304-1.207-0.911-1.207
		c-0.265,0-0.477,0.082-0.629,0.244c-0.155,0.162-0.23,0.376-0.23,0.642c0,0.291,0.124,0.539,0.371,0.745
		c0.129,0.119,0.432,0.308,0.91,0.564c0.522,0.282,0.883,0.522,1.079,0.719C124.117,32.256,124.272,32.663,124.272,33.151z"/>
	<path display="inline" d="M128.302,34.922c-0.316,0.034-0.563,0.051-0.744,0.051c-0.582,0-0.979-0.125-1.193-0.373
		c-0.179-0.223-0.271-0.629-0.271-1.22v-4.185h-0.963v-0.744h0.963v-1.193l1.015-0.45v1.643h1.156v0.744h-1.156v4.07
		c0,0.36,0.051,0.601,0.155,0.726c0.102,0.124,0.294,0.187,0.576,0.187c0.052,0,0.206-0.018,0.462-0.051V34.922z"/>
	<path display="inline" d="M133.579,34.922h-0.988l-0.014-0.847c-0.436,0.633-1.012,0.949-1.732,0.949
		c-0.547,0-0.973-0.179-1.271-0.539c-0.265-0.342-0.397-0.795-0.397-1.361c0-0.916,0.35-1.532,1.053-1.848
		c0.463-0.214,1.225-0.326,2.285-0.334V30.66c0-0.53-0.043-0.898-0.129-1.104c-0.137-0.342-0.428-0.513-0.873-0.513
		c-0.307,0-0.564,0.085-0.77,0.256c-0.205,0.171-0.309,0.41-0.309,0.719v0.063h-1.016v-0.063c0-0.591,0.215-1.032,0.643-1.323
		c0.369-0.257,0.865-0.385,1.49-0.385c0.744,0,1.262,0.18,1.553,0.539c0.273,0.325,0.41,0.864,0.41,1.618v2.387
		C133.515,33.634,133.538,34.323,133.579,34.922z M132.515,32.419v-0.77h-0.258c-1.352,0-2.027,0.462-2.027,1.386
		c0,0.831,0.316,1.245,0.949,1.245c0.48,0,0.834-0.205,1.066-0.616C132.425,33.339,132.515,32.924,132.515,32.419z"/>
	<path display="inline" d="M136.417,34.922h-1.016v-9.281h0.508h0.508V34.922L136.417,34.922z"/>
	<path display="inline" d="M140.831,34.922c-0.313,0.034-0.563,0.051-0.744,0.051c-0.582,0-0.979-0.125-1.192-0.373
		c-0.179-0.223-0.269-0.629-0.269-1.22v-4.185h-0.965v-0.744h0.965v-1.193l1.013-0.45v1.643h1.155v0.744h-1.155v4.07
		c0,0.36,0.053,0.601,0.153,0.726c0.104,0.124,0.295,0.187,0.578,0.187c0.051,0,0.207-0.018,0.461-0.051V34.922z"/>
	<path display="inline" d="M147.688,26.398c-0.076-0.008-0.209-0.013-0.397-0.013c-0.313,0-0.529,0.116-0.642,0.347
		c-0.067,0.163-0.104,0.424-0.104,0.784v0.937h1.104v0.744h-1.104v5.726h-1.016v-5.726h-0.947v-0.744h0.947v-0.706
		c0-0.702,0.088-1.202,0.26-1.501c0.236-0.445,0.7-0.668,1.385-0.668c0.184,0,0.354,0.009,0.516,0.026v0.794H147.688z"/>
	<path display="inline" d="M153.35,34.922h-1.015L152.32,34.1c-0.396,0.616-0.938,0.924-1.631,0.924
		c-1.153,0-1.731-0.663-1.731-1.989v-4.583h1.015v4.134c0,0.531,0.043,0.907,0.129,1.13c0.146,0.368,0.444,0.552,0.897,0.552
		c0.849,0,1.271-0.629,1.271-1.887v-3.928h1.027v5.045C153.298,34.002,153.313,34.477,153.35,34.922z"/>
	<path display="inline" d="M152.63,26.963h-0.978v-1.232h0.978V26.963z M150.613,26.963h-0.95v-1.232h0.95V26.963z"/>
	<path display="inline" d="M157.904,29.3c-0.104-0.017-0.176-0.026-0.219-0.026c-0.488,0-0.853,0.149-1.097,0.449
		c-0.246,0.299-0.366,0.698-0.366,1.194v4.005h-1.027v-5.289c0-0.437-0.012-0.83-0.036-1.181h1V29.3
		c0.35-0.651,0.897-0.976,1.644-0.976C157.872,28.324,157.904,28.649,157.904,29.3z"/>
	<path display="inline" d="M76.352,48.554h-4.005v-9.281h1.091v8.396h2.914V48.554L76.352,48.554z"/>
	<path display="inline" d="M81.666,48.554h-0.987l-0.013-0.847c-0.438,0.633-1.014,0.949-1.733,0.949
		c-0.548,0-0.972-0.18-1.271-0.54c-0.265-0.342-0.397-0.795-0.397-1.36c0-0.916,0.351-1.532,1.052-1.848
		c0.463-0.214,1.225-0.325,2.285-0.334v-0.282c0-0.531-0.042-0.898-0.129-1.104c-0.136-0.342-0.428-0.513-0.872-0.513
		c-0.308,0-0.566,0.085-0.771,0.257c-0.206,0.171-0.308,0.411-0.308,0.719v0.063h-1.014v-0.063c0-0.591,0.213-1.032,0.641-1.323
		c0.369-0.257,0.864-0.385,1.489-0.385c0.745,0,1.263,0.18,1.553,0.54c0.274,0.325,0.411,0.864,0.411,1.617v2.388
		C81.602,47.266,81.624,47.955,81.666,48.554z M80.601,46.051v-0.77h-0.257c-1.351,0-2.028,0.462-2.028,1.386
		c0,0.831,0.317,1.246,0.95,1.246c0.479,0,0.834-0.205,1.066-0.617C80.511,46.971,80.601,46.556,80.601,46.051z"/>
	<path display="inline" d="M87.828,48.554h-1.014V44.42c0-0.556-0.038-0.937-0.115-1.143c-0.145-0.376-0.44-0.564-0.885-0.564
		c-0.437,0-0.774,0.214-1.014,0.642c-0.197,0.368-0.295,0.805-0.295,1.31v3.889H83.49v-5.058c0-0.573-0.018-1.043-0.052-1.412h1.002
		v0.886c0.359-0.685,0.919-1.027,1.682-1.027c1.138,0,1.706,0.672,1.706,2.015V48.554z"/>
	<path display="inline" d="M94.002,48.554h-0.987l-0.014-0.745c-0.368,0.565-0.873,0.847-1.515,0.847
		c-0.83,0-1.399-0.372-1.707-1.117c-0.197-0.496-0.296-1.267-0.296-2.311c0-0.984,0.116-1.729,0.348-2.234
		c0.308-0.702,0.852-1.052,1.629-1.052c0.651,0,1.138,0.252,1.463,0.757v-3.428h1.027v8.062
		C93.951,47.566,93.969,47.972,94.002,48.554z M92.962,45.384c0-0.882-0.064-1.511-0.191-1.888c-0.18-0.539-0.527-0.808-1.041-0.808
		c-0.504,0-0.847,0.282-1.027,0.847c-0.12,0.368-0.18,0.941-0.18,1.72c0,0.848,0.068,1.468,0.206,1.861
		c0.18,0.531,0.5,0.796,0.963,0.796c0.547,0,0.911-0.27,1.09-0.809C92.903,46.752,92.962,46.18,92.962,45.384z"/>
	<path display="inline" d="M103.399,42.084l-1.618,6.47h-1.219l-1.258-5.353l-1.232,5.353h-1.22l-1.629-6.47h1.091l1.193,5.507
		l1.258-5.507h1.181l1.284,5.507l1.181-5.507H103.399z"/>
	<path display="inline" d="M105.735,40.505h-1.117v-1.104h1.117V40.505z M105.684,48.554h-1.014v-6.47h1.014V48.554z"/>
	<path display="inline" d="M110.292,42.932c-0.102-0.017-0.175-0.026-0.217-0.026c-0.489,0-0.854,0.15-1.099,0.449
		c-0.243,0.3-0.366,0.698-0.366,1.194v4.005h-1.027v-5.289c0-0.437-0.013-0.83-0.038-1.181h1.001v0.847
		c0.352-0.65,0.898-0.976,1.644-0.976C110.259,41.956,110.292,42.281,110.292,42.932z"/>
	<path display="inline" d="M114.016,48.554c-0.318,0.034-0.567,0.051-0.746,0.051c-0.581,0-0.979-0.124-1.193-0.373
		c-0.181-0.223-0.269-0.629-0.269-1.219v-4.185h-0.963v-0.744h0.963V40.89l1.014-0.449v1.643h1.155v0.744h-1.155v4.07
		c0,0.359,0.051,0.601,0.153,0.725c0.104,0.124,0.295,0.186,0.579,0.186c0.052,0,0.205-0.017,0.463-0.051L114.016,48.554
		L114.016,48.554z"/>
	<path display="inline" d="M118.868,46.783c0,1.258-0.677,1.887-2.028,1.887c-1.326,0-1.977-0.697-1.951-2.092h1.014
		c0,0.129,0.004,0.249,0.014,0.36c0.059,0.676,0.376,1.014,0.948,1.014c0.652,0,0.977-0.333,0.977-1.001
		c0-0.359-0.102-0.642-0.308-0.847c-0.129-0.137-0.416-0.326-0.86-0.565c-0.607-0.325-0.993-0.565-1.155-0.719
		c-0.325-0.299-0.488-0.698-0.488-1.194c0-0.557,0.185-0.979,0.553-1.271c0.342-0.274,0.801-0.411,1.374-0.411
		c0.667,0,1.142,0.156,1.425,0.468c0.281,0.313,0.432,0.794,0.448,1.444h-1.014c0-0.804-0.304-1.207-0.91-1.207
		c-0.267,0-0.477,0.082-0.631,0.244c-0.152,0.163-0.23,0.377-0.23,0.642c0,0.292,0.125,0.539,0.372,0.745
		c0.129,0.12,0.432,0.308,0.911,0.564c0.523,0.283,0.882,0.522,1.078,0.719C118.713,45.888,118.868,46.295,118.868,46.783z"/>
	<path display="inline" d="M124.375,46.539c0,1.429-0.673,2.144-2.017,2.144c-0.924,0-1.545-0.3-1.86-0.899
		c-0.24-0.453-0.359-1.241-0.359-2.362s0.106-1.917,0.319-2.388c0.326-0.728,0.968-1.091,1.926-1.091
		c0.737,0,1.259,0.171,1.567,0.513c0.281,0.325,0.424,0.852,0.424,1.579h-1.003c0-0.907-0.334-1.361-1.001-1.361
		c-0.53,0-0.877,0.287-1.039,0.86c-0.095,0.334-0.142,0.929-0.142,1.785c0,0.976,0.073,1.647,0.219,2.015
		c0.163,0.411,0.471,0.616,0.924,0.616c0.401,0,0.685-0.141,0.848-0.423c0.12-0.214,0.184-0.543,0.191-0.989L124.375,46.539
		L124.375,46.539z"/>
	<path display="inline" d="M130.14,48.554h-1.016V44.42c0-0.547-0.038-0.928-0.114-1.143c-0.146-0.376-0.44-0.564-0.887-0.564
		c-0.872,0-1.31,0.638-1.31,1.913v3.928h-1.015v-9.281h1.015v3.556c0.42-0.59,0.963-0.885,1.631-0.885
		c1.129,0,1.696,0.676,1.696,2.028V48.554z"/>
	<path display="inline" d="M136.058,48.554h-0.988l-0.014-0.847c-0.436,0.633-1.014,0.949-1.732,0.949
		c-0.549,0-0.973-0.18-1.271-0.54c-0.266-0.342-0.396-0.795-0.396-1.36c0-0.916,0.35-1.532,1.051-1.848
		c0.463-0.214,1.225-0.325,2.285-0.334v-0.282c0-0.531-0.043-0.898-0.129-1.104c-0.137-0.342-0.426-0.513-0.871-0.513
		c-0.309,0-0.566,0.085-0.771,0.257c-0.205,0.171-0.307,0.411-0.307,0.719v0.063h-1.016v-0.063c0-0.591,0.215-1.032,0.643-1.323
		c0.367-0.257,0.863-0.385,1.488-0.385c0.744,0,1.262,0.18,1.553,0.54c0.273,0.325,0.412,0.864,0.412,1.617v2.388
		C135.993,47.266,136.015,47.955,136.058,48.554z M134.991,46.051v-0.77h-0.256c-1.354,0-2.029,0.462-2.029,1.386
		c0,0.831,0.318,1.246,0.951,1.246c0.479,0,0.834-0.205,1.064-0.617C134.901,46.971,134.991,46.556,134.991,46.051z"/>
	<path display="inline" d="M140.37,40.03c-0.076-0.008-0.211-0.013-0.396-0.013c-0.318,0-0.533,0.116-0.645,0.346
		c-0.069,0.163-0.104,0.424-0.104,0.784v0.937h1.104v0.744h-1.104v5.726h-1.015v-5.726h-0.951v-0.744h0.951v-0.707
		c0-0.701,0.086-1.202,0.256-1.501c0.24-0.445,0.701-0.667,1.388-0.667c0.181,0,0.353,0.008,0.515,0.026V40.03L140.37,40.03z"/>
	<path display="inline" d="M144.145,48.554c-0.315,0.034-0.563,0.051-0.744,0.051c-0.58,0-0.979-0.124-1.192-0.373
		c-0.181-0.223-0.271-0.629-0.271-1.219v-4.185h-0.963v-0.744h0.963V40.89l1.015-0.449v1.643h1.155v0.744h-1.155v4.07
		c0,0.359,0.053,0.601,0.153,0.725c0.104,0.124,0.295,0.186,0.578,0.186c0.051,0,0.205-0.017,0.461-0.051V48.554L144.145,48.554z"/>
	<path display="inline" d="M152.898,48.554h-1.017l-0.012-0.821c-0.396,0.616-0.937,0.924-1.629,0.924
		c-1.156,0-1.734-0.663-1.734-1.99v-4.583h1.015v4.133c0,0.531,0.043,0.907,0.129,1.13c0.146,0.368,0.445,0.552,0.897,0.552
		c0.849,0,1.271-0.629,1.271-1.887v-3.928h1.027v5.045C152.85,47.634,152.863,48.109,152.898,48.554z"/>
	<path display="inline" d="M159.1,48.554h-1.015V44.42c0-0.556-0.039-0.937-0.114-1.143c-0.146-0.376-0.44-0.564-0.888-0.564
		c-0.437,0-0.772,0.214-1.015,0.642c-0.194,0.368-0.295,0.805-0.295,1.31v3.889h-1.015v-5.058c0-0.573-0.018-1.043-0.051-1.412h1
		v0.886c0.358-0.685,0.92-1.027,1.683-1.027c1.139,0,1.707,0.672,1.707,2.015v4.596H159.1z"/>
	<path display="inline" d="M165.273,48.554h-0.987l-0.015-0.745c-0.369,0.565-0.873,0.847-1.517,0.847
		c-0.83,0-1.397-0.372-1.705-1.117c-0.198-0.496-0.297-1.267-0.297-2.311c0-0.984,0.117-1.729,0.349-2.234
		c0.308-0.702,0.853-1.052,1.631-1.052c0.647,0,1.138,0.252,1.463,0.757v-3.428h1.024v8.062
		C165.223,47.566,165.238,47.972,165.273,48.554z M164.232,45.384c0-0.882-0.063-1.511-0.19-1.888
		c-0.181-0.539-0.526-0.808-1.039-0.808c-0.506,0-0.851,0.282-1.026,0.847c-0.121,0.368-0.181,0.941-0.181,1.72
		c0,0.848,0.067,1.468,0.205,1.861c0.181,0.531,0.5,0.796,0.963,0.796c0.548,0,0.91-0.27,1.091-0.809
		C164.173,46.752,164.232,46.18,164.232,45.384z"/>
	<path display="inline" d="M174.762,48.554h-4.365v-9.281h4.274v0.886h-3.187v3.183h3.019v0.86h-3.019v3.466h3.274v0.886H174.762z"
		/>
	<path display="inline" d="M178.973,42.932c-0.104-0.017-0.177-0.026-0.222-0.026c-0.485,0-0.853,0.15-1.097,0.449
		c-0.243,0.3-0.366,0.698-0.366,1.194v4.005h-1.024v-5.289c0-0.437-0.015-0.83-0.039-1.181h1v0.847
		c0.353-0.65,0.897-0.976,1.646-0.976C178.938,41.956,178.973,42.281,178.973,42.932z"/>
	<path display="inline" d="M184.527,48.554h-1.014V44.42c0-0.556-0.037-0.937-0.115-1.143c-0.146-0.376-0.44-0.564-0.885-0.564
		c-0.438,0-0.775,0.214-1.017,0.642c-0.197,0.368-0.295,0.805-0.295,1.31v3.889h-1.015v-5.058c0-0.573-0.019-1.043-0.051-1.412h1
		v0.886c0.358-0.685,0.92-1.027,1.682-1.027c1.14,0,1.707,0.672,1.707,2.015v4.596H184.527z"/>
	<path display="inline" d="M190.445,48.554h-0.987l-0.015-0.847c-0.437,0.633-1.014,0.949-1.731,0.949
		c-0.549,0-0.971-0.18-1.271-0.54c-0.269-0.342-0.397-0.795-0.397-1.36c0-0.916,0.351-1.532,1.054-1.848
		c0.461-0.214,1.223-0.325,2.284-0.334v-0.282c0-0.531-0.043-0.898-0.129-1.104c-0.14-0.342-0.428-0.513-0.873-0.513
		c-0.31,0-0.563,0.085-0.771,0.257c-0.207,0.171-0.31,0.411-0.31,0.719v0.063h-1.014v-0.063c0-0.591,0.213-1.032,0.641-1.323
		c0.369-0.257,0.865-0.385,1.488-0.385c0.746,0,1.265,0.18,1.556,0.54c0.274,0.325,0.409,0.864,0.409,1.617v2.388
		C190.382,47.266,190.402,47.955,190.445,48.554z M189.382,46.051v-0.77h-0.258c-1.353,0-2.026,0.462-2.026,1.386
		c0,0.831,0.315,1.246,0.948,1.246c0.479,0,0.834-0.205,1.063-0.617C189.29,46.971,189.382,46.556,189.382,46.051z"/>
	<path display="inline" d="M189.896,40.595h-0.979v-1.232h0.979V40.595z M187.878,40.595h-0.948v-1.232h0.948V40.595z"/>
	<path display="inline" d="M196.607,48.554h-1.015V44.42c0-0.547-0.038-0.928-0.114-1.143c-0.146-0.376-0.442-0.564-0.888-0.564
		c-0.873,0-1.309,0.638-1.309,1.913v3.928h-1.015v-9.281h1.015v3.556c0.418-0.59,0.963-0.885,1.631-0.885
		c1.129,0,1.692,0.676,1.692,2.028v4.582H196.607z"/>
	<path display="inline" d="M201.218,42.932c-0.104-0.017-0.176-0.026-0.219-0.026c-0.487,0-0.854,0.15-1.099,0.449
		c-0.243,0.3-0.366,0.698-0.366,1.194v4.005h-1.027v-5.289c0-0.437-0.012-0.83-0.036-1.181h1v0.847
		c0.353-0.65,0.897-0.976,1.646-0.976C201.184,41.956,201.218,42.281,201.218,42.932z"/>
	<path display="inline" d="M206.827,48.554h-1.017l-0.013-0.821c-0.396,0.616-0.938,0.924-1.631,0.924
		c-1.156,0-1.731-0.663-1.731-1.99v-4.583h1.015v4.133c0,0.531,0.043,0.907,0.129,1.13c0.146,0.368,0.444,0.552,0.897,0.552
		c0.849,0,1.271-0.629,1.271-1.887v-3.928h1.024v5.045C206.773,47.634,206.792,48.109,206.827,48.554z"/>
	<path display="inline" d="M213.025,48.554h-1.015V44.42c0-0.556-0.038-0.937-0.114-1.143c-0.146-0.376-0.44-0.564-0.888-0.564
		c-0.438,0-0.772,0.214-1.014,0.642c-0.197,0.368-0.295,0.805-0.295,1.31v3.889h-1.015v-5.058c0-0.573-0.019-1.043-0.054-1.412
		h1.003v0.886c0.358-0.685,0.92-1.027,1.682-1.027c1.138,0,1.707,0.672,1.707,2.015v4.596H213.025z"/>
	<path display="inline" d="M219.214,42.084c0,0.094-0.006,0.263-0.021,0.506c-0.012,0.245-0.021,0.435-0.021,0.572v5.661
		c0,0.787-0.184,1.36-0.551,1.72c-0.369,0.359-0.955,0.539-1.761,0.539c-1.334,0-2.012-0.625-2.026-1.875h1.078
		c0,0.788,0.334,1.181,1.002,1.181c0.521,0,0.867-0.188,1.039-0.565c0.119-0.248,0.18-0.659,0.18-1.232V47.72
		c-0.358,0.505-0.858,0.757-1.502,0.757c-0.805,0-1.356-0.337-1.655-1.014c-0.197-0.444-0.295-1.138-0.295-2.079
		c0-1.044,0.106-1.823,0.319-2.336c0.31-0.736,0.856-1.104,1.646-1.104c0.72,0,1.235,0.299,1.554,0.898v-0.757L219.214,42.084
		L219.214,42.084z M218.161,45.114c0-0.727-0.06-1.266-0.181-1.618c-0.188-0.53-0.539-0.795-1.054-0.795
		c-0.53,0-0.881,0.299-1.053,0.898c-0.103,0.359-0.153,0.954-0.153,1.785c0,0.744,0.053,1.275,0.153,1.591
		c0.164,0.531,0.492,0.796,0.987,0.796c0.582,0,0.968-0.32,1.156-0.962C218.113,46.475,218.161,45.91,218.161,45.114z"/>
</g>
<g>
	<g id="Background">
		<rect fill="#FFFFFF" width="246.01" height="119"/>
	</g>
	<g id="Name" transform="scale(1,-1) translate(0,-104)">
		<path d="M77.52,76.671c0-0.326-0.042-0.613-0.124-0.857c-0.082-0.245-0.193-0.457-0.333-0.633c-0.14-0.177-0.304-0.322-0.49-0.428
			c-0.186-0.11-0.378-0.192-0.578-0.247V74.48c0.244-0.045,0.473-0.132,0.687-0.259c0.214-0.128,0.399-0.286,0.559-0.476
			c0.158-0.191,0.286-0.416,0.382-0.675c0.095-0.258,0.143-0.541,0.143-0.85c0-0.372-0.063-0.712-0.191-1.02
			c-0.127-0.31-0.325-0.578-0.592-0.804c-0.268-0.227-0.607-0.405-1.015-0.532c-0.408-0.126-0.894-0.19-1.457-0.19h-1.92v9.395
			h1.812c0.553,0,1.028-0.056,1.423-0.17s0.719-0.275,0.973-0.483c0.254-0.209,0.438-0.461,0.552-0.755
			C77.462,77.364,77.52,77.035,77.52,76.671z M76.32,76.631c0,0.436-0.153,0.794-0.462,1.076c-0.308,0.282-0.794,0.422-1.457,0.422
			h-0.626v-3.241h0.612c0.635,0,1.117,0.154,1.443,0.463C76.157,75.66,76.32,76.087,76.32,76.631z M76.499,72.302
			c0,0.507-0.167,0.909-0.498,1.204c-0.332,0.295-0.806,0.443-1.423,0.443h-0.803v-3.294h0.735c0.7,0,1.205,0.138,1.519,0.415
			C76.342,71.345,76.499,71.755,76.499,72.302z M83.796,69.673H82.79v0.734h-0.027c-0.028-0.053-0.087-0.133-0.177-0.236
			c-0.091-0.104-0.207-0.205-0.348-0.302c-0.141-0.093-0.311-0.179-0.51-0.25c-0.2-0.073-0.422-0.108-0.667-0.108
			c-0.291,0-0.551,0.043-0.783,0.13c-0.231,0.083-0.429,0.223-0.593,0.413c-0.164,0.191-0.288,0.438-0.374,0.745
			c-0.086,0.304-0.129,0.676-0.129,1.122v4.29h1.103v-4.208c0-0.546,0.089-0.933,0.266-1.166c0.177-0.232,0.451-0.348,0.824-0.348
			c0.317,0,0.586,0.082,0.804,0.238c0.217,0.159,0.39,0.315,0.518,0.472v5.01h1.102V69.673z M89.052,69.673v4.208
			c0,0.554-0.092,0.95-0.279,1.191c-0.187,0.241-0.471,0.36-0.851,0.36c-0.328,0-0.6-0.081-0.817-0.245
			c-0.218-0.163-0.392-0.322-0.518-0.478v-5.037h-1.104v6.537h1.008v-0.736h0.027c0.028,0.056,0.087,0.135,0.177,0.238
			c0.091,0.105,0.209,0.205,0.354,0.299c0.145,0.097,0.318,0.18,0.518,0.253c0.2,0.072,0.426,0.109,0.681,0.109
			c0.29,0,0.553-0.044,0.79-0.13c0.236-0.088,0.437-0.226,0.6-0.416c0.163-0.19,0.29-0.438,0.38-0.741
			c0.092-0.305,0.137-0.68,0.137-1.125v-4.289H89.052z M91.503,72.846c0,0.661,0.086,1.216,0.259,1.66
			c0.173,0.445,0.395,0.804,0.667,1.075c0.272,0.272,0.581,0.466,0.926,0.58c0.345,0.114,0.689,0.169,1.035,0.169
			c0.208,0,0.389-0.016,0.544-0.047c0.154-0.031,0.282-0.07,0.382-0.117V79.3l1.103,0.123v-9.75h-1.008v0.696h-0.027
			c-0.027-0.056-0.078-0.131-0.15-0.226c-0.073-0.094-0.173-0.19-0.3-0.286c-0.127-0.094-0.285-0.178-0.476-0.245
			c-0.191-0.068-0.414-0.101-0.667-0.101c-0.309,0-0.601,0.061-0.879,0.183c-0.276,0.122-0.52,0.316-0.728,0.585
			c-0.209,0.27-0.374,0.612-0.497,1.034C91.564,71.736,91.503,72.247,91.503,72.846z M94.09,70.489c0.173,0,0.328,0.024,0.463,0.07
			c0.137,0.043,0.254,0.103,0.354,0.168c0.101,0.071,0.184,0.14,0.251,0.212c0.069,0.072,0.12,0.136,0.158,0.19v4.031
			c-0.1,0.064-0.216,0.117-0.348,0.164c-0.131,0.045-0.298,0.068-0.497,0.068c-0.253,0-0.493-0.043-0.715-0.13
			c-0.222-0.085-0.416-0.229-0.578-0.43c-0.164-0.198-0.292-0.456-0.389-0.775c-0.095-0.318-0.142-0.709-0.142-1.17
			c0-0.454,0.039-0.835,0.116-1.138c0.077-0.304,0.184-0.549,0.319-0.735c0.136-0.186,0.292-0.321,0.463-0.401
			C93.719,70.532,93.901,70.489,94.09,70.489z M102.301,74.002c0-0.28-0.01-0.522-0.027-0.729c-0.017-0.204-0.036-0.383-0.055-0.537
			h-3.336c0.037-0.771,0.202-1.338,0.498-1.703c0.294-0.361,0.718-0.545,1.272-0.545c0.19,0,0.363,0.024,0.518,0.07
			c0.155,0.043,0.288,0.1,0.402,0.163c0.113,0.064,0.208,0.127,0.285,0.19c0.077,0.065,0.134,0.114,0.171,0.151l0.408-0.777
			c-0.046-0.045-0.114-0.111-0.204-0.197c-0.09-0.087-0.214-0.172-0.368-0.259c-0.154-0.085-0.344-0.162-0.571-0.226
			c-0.227-0.063-0.496-0.094-0.803-0.094c-0.409,0-0.779,0.066-1.11,0.203s-0.614,0.349-0.844,0.634
			c-0.232,0.286-0.411,0.649-0.539,1.089c-0.127,0.44-0.19,0.968-0.19,1.587c0,0.581,0.065,1.08,0.197,1.504
			c0.131,0.422,0.312,0.769,0.538,1.041c0.226,0.273,0.49,0.474,0.79,0.604c0.299,0.133,0.622,0.2,0.966,0.2
			c0.626,0,1.117-0.2,1.471-0.592C102.125,75.385,102.301,74.794,102.301,74.002z M100.231,75.473c-0.391,0-0.704-0.163-0.941-0.489
			c-0.235-0.326-0.371-0.798-0.407-1.417h2.383c0.008,0.046,0.016,0.111,0.02,0.198c0.006,0.086,0.008,0.179,0.008,0.279
			c0,0.454-0.091,0.805-0.273,1.056C100.839,75.349,100.576,75.473,100.231,75.473z M106.59,74.889
			c-0.072,0.081-0.205,0.192-0.396,0.335c-0.19,0.14-0.439,0.209-0.748,0.209c-0.291,0-0.513-0.068-0.667-0.204
			c-0.154-0.136-0.232-0.3-0.232-0.49c0-0.244,0.07-0.447,0.211-0.606c0.141-0.158,0.356-0.329,0.647-0.511l0.408-0.244
			c0.445-0.263,0.795-0.547,1.048-0.851c0.254-0.305,0.381-0.697,0.381-1.178c0-0.518-0.179-0.953-0.537-1.307
			c-0.359-0.355-0.874-0.531-1.547-0.531c-0.263,0-0.494,0.027-0.694,0.082c-0.198,0.056-0.374,0.117-0.523,0.19
			c-0.149,0.072-0.275,0.152-0.374,0.238c-0.1,0.086-0.183,0.166-0.245,0.239l0.531,0.871c0.055-0.055,0.121-0.119,0.197-0.19
			c0.077-0.073,0.17-0.142,0.279-0.212c0.109-0.065,0.231-0.125,0.369-0.168c0.136-0.045,0.294-0.07,0.476-0.07
			c0.327,0,0.576,0.074,0.749,0.219c0.172,0.145,0.258,0.322,0.258,0.532c0,0.155-0.019,0.288-0.061,0.401
			c-0.042,0.112-0.102,0.215-0.184,0.307c-0.082,0.089-0.182,0.178-0.3,0.258c-0.118,0.083-0.254,0.173-0.409,0.273l-0.407,0.259
			c-0.409,0.264-0.73,0.54-0.961,0.83c-0.231,0.291-0.348,0.663-0.348,1.117c0,0.245,0.049,0.469,0.144,0.674
			c0.096,0.204,0.229,0.38,0.402,0.531c0.172,0.15,0.375,0.267,0.605,0.355c0.232,0.085,0.479,0.13,0.743,0.13
			c0.253,0,0.472-0.026,0.653-0.076c0.181-0.049,0.338-0.114,0.47-0.189c0.132-0.078,0.241-0.155,0.327-0.234
			c0.086-0.076,0.157-0.142,0.21-0.196L106.59,74.889z M108.156,71.333c0,0.382,0.072,0.7,0.218,0.955
			c0.146,0.253,0.34,0.46,0.585,0.619c0.246,0.158,0.534,0.272,0.866,0.339c0.33,0.07,0.682,0.103,1.055,0.103h0.341v0.626
			c0,0.555-0.099,0.938-0.293,1.144c-0.196,0.209-0.47,0.314-0.824,0.314c-0.327,0-0.599-0.069-0.816-0.209
			c-0.219-0.143-0.392-0.267-0.519-0.376l-0.462,0.734c0.072,0.074,0.166,0.154,0.279,0.247c0.113,0.089,0.251,0.176,0.415,0.259
			c0.163,0.08,0.349,0.151,0.558,0.203c0.209,0.056,0.444,0.083,0.708,0.083c0.673,0,1.18-0.187,1.525-0.56
			c0.346-0.374,0.518-0.971,0.518-1.797v-2.983c0-0.281,0.009-0.556,0.027-0.823c0.018-0.268,0.037-0.447,0.054-0.538h-1.048
			l-0.041,0.722h-0.028c-0.036-0.083-0.089-0.175-0.164-0.28c-0.072-0.105-0.162-0.199-0.271-0.286
			c-0.11-0.085-0.241-0.162-0.396-0.226c-0.154-0.063-0.335-0.094-0.544-0.094c-0.245,0-0.474,0.044-0.687,0.137
			c-0.213,0.089-0.399,0.216-0.559,0.38c-0.16,0.163-0.281,0.356-0.368,0.577C108.2,70.829,108.156,71.071,108.156,71.333z
			 M110.131,70.449c0.154,0,0.29,0.022,0.408,0.069c0.119,0.045,0.221,0.1,0.306,0.164c0.086,0.062,0.16,0.133,0.218,0.209
			c0.059,0.079,0.111,0.143,0.157,0.2v1.442l-0.354-0.015c-0.527-0.018-0.926-0.108-1.2-0.271c-0.271-0.164-0.407-0.426-0.407-0.792
			c0-0.334,0.077-0.587,0.231-0.755C109.645,70.533,109.858,70.449,110.131,70.449z M117.538,69.673v4.208
			c0,0.554-0.094,0.95-0.279,1.191c-0.186,0.241-0.47,0.36-0.851,0.36c-0.327,0-0.599-0.081-0.817-0.245
			c-0.217-0.163-0.39-0.322-0.517-0.478v-5.037h-1.104v6.537h1.008v-0.736h0.027c0.026,0.056,0.086,0.135,0.177,0.238
			c0.09,0.105,0.208,0.205,0.354,0.299c0.146,0.097,0.318,0.18,0.517,0.253c0.201,0.072,0.427,0.109,0.681,0.109
			c0.291,0,0.555-0.044,0.79-0.13c0.236-0.088,0.436-0.226,0.599-0.416c0.165-0.19,0.291-0.438,0.382-0.741
			c0.091-0.305,0.136-0.68,0.136-1.125v-4.289H117.538z M123.107,74.889c-0.073,0.081-0.204,0.192-0.395,0.335
			c-0.191,0.14-0.44,0.209-0.75,0.209c-0.291,0-0.513-0.068-0.668-0.204c-0.153-0.136-0.23-0.3-0.23-0.49
			c0-0.244,0.071-0.447,0.211-0.606c0.139-0.158,0.355-0.329,0.647-0.511l0.407-0.244c0.444-0.263,0.796-0.547,1.049-0.851
			c0.254-0.305,0.382-0.697,0.382-1.178c0-0.518-0.18-0.953-0.538-1.307c-0.359-0.355-0.875-0.531-1.546-0.531
			c-0.265,0-0.495,0.027-0.695,0.082c-0.199,0.056-0.375,0.117-0.524,0.19c-0.15,0.072-0.275,0.152-0.374,0.238
			c-0.101,0.086-0.182,0.166-0.246,0.239l0.531,0.871c0.054-0.055,0.119-0.119,0.198-0.19c0.077-0.073,0.17-0.142,0.278-0.212
			c0.11-0.065,0.232-0.125,0.368-0.168c0.136-0.045,0.295-0.07,0.477-0.07c0.326,0,0.576,0.074,0.749,0.219
			c0.172,0.145,0.258,0.322,0.258,0.532c0,0.155-0.02,0.288-0.061,0.401c-0.041,0.112-0.101,0.215-0.185,0.307
			c-0.081,0.089-0.18,0.178-0.299,0.258c-0.118,0.083-0.253,0.173-0.409,0.273l-0.408,0.259c-0.408,0.264-0.729,0.54-0.96,0.83
			c-0.23,0.291-0.346,0.663-0.346,1.117c0,0.245,0.047,0.469,0.143,0.674c0.095,0.204,0.229,0.38,0.401,0.531
			c0.172,0.15,0.375,0.267,0.606,0.355c0.23,0.085,0.479,0.13,0.743,0.13c0.253,0,0.472-0.026,0.652-0.076
			c0.182-0.049,0.339-0.114,0.469-0.189c0.133-0.078,0.241-0.155,0.329-0.234c0.086-0.076,0.156-0.142,0.21-0.196L123.107,74.889z
			 M127.845,75.31h-1.429v-3.622c0-0.463,0.059-0.779,0.176-0.947c0.118-0.167,0.318-0.252,0.6-0.252c0.164,0,0.304,0.024,0.42,0.07
			c0.119,0.043,0.206,0.087,0.26,0.123l0.15-0.886c-0.045-0.036-0.154-0.094-0.327-0.169c-0.172-0.077-0.405-0.116-0.695-0.116
			c-0.563,0-0.984,0.156-1.266,0.468c-0.282,0.313-0.421,0.834-0.421,1.561v3.771h-0.792v0.736l0.792,0.164l0.121,1.824h0.981
			v-1.824h1.566L127.845,75.31z M128.717,71.333c0,0.382,0.071,0.7,0.217,0.955c0.145,0.253,0.342,0.46,0.584,0.619
			c0.247,0.158,0.536,0.272,0.866,0.339c0.332,0.07,0.685,0.103,1.056,0.103h0.341v0.626c0,0.555-0.099,0.938-0.293,1.144
			c-0.197,0.209-0.472,0.314-0.825,0.314c-0.326,0-0.599-0.069-0.816-0.209c-0.218-0.143-0.39-0.267-0.519-0.376l-0.461,0.734
			c0.073,0.074,0.165,0.154,0.278,0.247c0.112,0.089,0.253,0.176,0.415,0.259c0.165,0.08,0.349,0.151,0.559,0.203
			c0.208,0.056,0.444,0.083,0.707,0.083c0.672,0,1.18-0.187,1.524-0.56c0.347-0.374,0.517-0.971,0.517-1.797v-2.983
			c0-0.281,0.009-0.556,0.026-0.823c0.021-0.268,0.038-0.447,0.057-0.538h-1.05l-0.041,0.722h-0.026
			c-0.037-0.083-0.091-0.175-0.164-0.28c-0.073-0.105-0.164-0.199-0.272-0.286c-0.109-0.085-0.241-0.162-0.394-0.226
			c-0.155-0.063-0.337-0.094-0.544-0.094c-0.247,0-0.475,0.044-0.688,0.137c-0.213,0.089-0.4,0.216-0.559,0.38
			c-0.159,0.163-0.282,0.356-0.366,0.577C128.76,70.829,128.717,71.071,128.717,71.333z M130.69,70.449
			c0.156,0,0.292,0.022,0.409,0.069c0.12,0.045,0.221,0.1,0.307,0.164c0.088,0.062,0.16,0.133,0.219,0.209
			c0.059,0.079,0.111,0.143,0.158,0.2v1.442l-0.356-0.015c-0.526-0.018-0.926-0.108-1.197-0.271
			c-0.273-0.164-0.407-0.426-0.407-0.792c0-0.334,0.076-0.587,0.23-0.755C130.205,70.533,130.418,70.449,130.69,70.449z
			 M135.62,71.199c0-0.273,0.038-0.465,0.117-0.573c0.076-0.108,0.209-0.165,0.4-0.165c0.099,0,0.185,0.01,0.253,0.028
			c0.068,0.02,0.12,0.037,0.156,0.056l0.095-0.818c-0.054-0.027-0.153-0.063-0.3-0.108c-0.145-0.046-0.34-0.068-0.585-0.068
			c-0.372,0-0.672,0.113-0.898,0.339c-0.228,0.229-0.34,0.632-0.34,1.214V79.3l1.103,0.123V71.199z M140.429,75.31h-1.432v-3.622
			c0-0.463,0.059-0.779,0.179-0.947c0.116-0.167,0.314-0.252,0.597-0.252c0.164,0,0.306,0.024,0.424,0.07
			c0.118,0.043,0.203,0.087,0.258,0.123l0.149-0.886c-0.045-0.036-0.153-0.094-0.325-0.169c-0.174-0.077-0.405-0.116-0.696-0.116
			c-0.563,0-0.985,0.156-1.266,0.468c-0.28,0.313-0.422,0.834-0.422,1.561v3.771h-0.79v0.736l0.79,0.164l0.121,1.824h0.981v-1.824
			h1.565L140.429,75.31z M147.315,75.31h-1.332v-5.637h-1.104v5.637h-0.791v0.736l0.791,0.149v1.306
			c0,0.355,0.049,0.659,0.148,0.914c0.103,0.253,0.232,0.463,0.396,0.626c0.163,0.163,0.353,0.282,0.57,0.354
			c0.218,0.073,0.45,0.11,0.695,0.11c0.236,0,0.436-0.031,0.599-0.095c0.163-0.064,0.272-0.115,0.329-0.151l-0.234-0.911
			c-0.053,0.035-0.131,0.075-0.232,0.117c-0.099,0.04-0.222,0.06-0.364,0.06c-0.265,0-0.465-0.081-0.601-0.244
			c-0.136-0.164-0.203-0.463-0.203-0.899v-1.17h1.469L147.315,75.31z M152.98,69.673h-1.008v0.734h-0.027
			c-0.026-0.053-0.085-0.133-0.176-0.236c-0.092-0.104-0.207-0.205-0.348-0.302c-0.14-0.093-0.311-0.179-0.511-0.25
			c-0.199-0.073-0.423-0.108-0.668-0.108c-0.29,0-0.55,0.043-0.782,0.13c-0.231,0.083-0.43,0.223-0.591,0.413
			c-0.164,0.191-0.29,0.438-0.375,0.745c-0.088,0.304-0.128,0.676-0.128,1.122v4.29h1.101v-4.208c0-0.546,0.088-0.933,0.267-1.166
			c0.177-0.232,0.451-0.348,0.823-0.348c0.318,0,0.586,0.082,0.802,0.238c0.22,0.159,0.393,0.315,0.519,0.472v5.01h1.103V69.673z
			 M150.271,78.087c0-0.208-0.064-0.375-0.189-0.503c-0.129-0.127-0.282-0.19-0.466-0.19c-0.181,0-0.335,0.063-0.461,0.19
			c-0.128,0.127-0.189,0.295-0.189,0.503c0,0.211,0.062,0.378,0.189,0.505c0.126,0.127,0.28,0.19,0.461,0.19
			c0.184,0,0.337-0.063,0.466-0.19C150.207,78.465,150.271,78.298,150.271,78.087z M152.368,78.087c0-0.208-0.063-0.375-0.189-0.503
			c-0.128-0.127-0.283-0.19-0.465-0.19c-0.181,0-0.336,0.063-0.463,0.19c-0.127,0.127-0.19,0.295-0.19,0.503
			c0,0.211,0.063,0.378,0.19,0.505s0.282,0.19,0.463,0.19c0.182,0,0.337-0.063,0.465-0.19
			C152.305,78.465,152.368,78.298,152.368,78.087z M157.542,75.242c-0.025,0.019-0.084,0.04-0.176,0.068
			c-0.09,0.026-0.213,0.042-0.367,0.042c-0.346,0-0.614-0.094-0.812-0.279c-0.193-0.187-0.332-0.389-0.415-0.604v-4.795h-1.103
			v6.537h1.007v-0.885h0.028c0.045,0.126,0.104,0.252,0.177,0.375c0.072,0.122,0.163,0.232,0.272,0.327
			c0.109,0.096,0.239,0.17,0.389,0.225c0.149,0.053,0.329,0.081,0.537,0.081c0.153,0,0.278-0.013,0.375-0.041
			c0.095-0.026,0.171-0.048,0.225-0.067L157.542,75.242z M73.775,65.337v-8.415h3.431l-0.082-0.979H72.59v9.394H73.775z
			 M77.832,57.603c0,0.381,0.073,0.699,0.218,0.954c0.146,0.253,0.34,0.46,0.585,0.619c0.246,0.159,0.534,0.273,0.866,0.338
			c0.331,0.07,0.682,0.104,1.054,0.104h0.342v0.625c0,0.554-0.099,0.937-0.293,1.145c-0.195,0.208-0.471,0.312-0.824,0.312
			c-0.327,0-0.599-0.069-0.817-0.209c-0.218-0.141-0.391-0.267-0.518-0.375l-0.464,0.734c0.073,0.074,0.167,0.155,0.28,0.246
			c0.114,0.089,0.252,0.177,0.416,0.258c0.163,0.082,0.349,0.152,0.558,0.206c0.209,0.055,0.444,0.083,0.708,0.083
			c0.672,0,1.18-0.187,1.525-0.561c0.344-0.373,0.517-0.97,0.517-1.796v-2.983c0-0.281,0.009-0.556,0.027-0.823
			c0.019-0.268,0.036-0.447,0.055-0.537H81.02l-0.042,0.721h-0.026c-0.037-0.083-0.092-0.174-0.165-0.279
			c-0.072-0.105-0.164-0.2-0.272-0.287c-0.108-0.085-0.24-0.161-0.394-0.226c-0.155-0.063-0.336-0.094-0.545-0.094
			c-0.245,0-0.475,0.044-0.688,0.138c-0.213,0.089-0.399,0.216-0.558,0.379c-0.159,0.164-0.282,0.358-0.368,0.579
			C77.876,57.098,77.832,57.339,77.832,57.603z M79.808,56.718c0.153,0,0.29,0.024,0.408,0.069c0.118,0.044,0.219,0.1,0.307,0.163
			c0.085,0.062,0.157,0.134,0.217,0.209c0.059,0.079,0.111,0.144,0.157,0.2v1.442l-0.354-0.015
			c-0.526-0.018-0.926-0.108-1.198-0.271c-0.272-0.164-0.409-0.426-0.409-0.791c0-0.335,0.076-0.588,0.232-0.755
			C79.321,56.802,79.534,56.718,79.808,56.718z M87.214,55.943v4.208c0,0.553-0.093,0.95-0.28,1.19
			c-0.186,0.241-0.469,0.36-0.85,0.36c-0.327,0-0.6-0.08-0.816-0.245c-0.218-0.163-0.391-0.322-0.518-0.477v-5.036h-1.103v6.535
			h1.008v-0.737h0.026c0.027,0.056,0.086,0.136,0.176,0.239c0.091,0.105,0.209,0.205,0.354,0.299
			c0.145,0.098,0.318,0.182,0.518,0.254c0.2,0.072,0.426,0.109,0.681,0.109c0.29,0,0.554-0.045,0.79-0.13
			c0.235-0.086,0.437-0.227,0.6-0.416c0.163-0.19,0.29-0.438,0.38-0.742c0.091-0.304,0.137-0.68,0.137-1.124v-4.288H87.214z
			 M89.666,59.115c0,0.662,0.086,1.216,0.258,1.661c0.172,0.444,0.395,0.803,0.667,1.075c0.273,0.273,0.581,0.466,0.925,0.58
			c0.347,0.114,0.69,0.169,1.037,0.169c0.208,0,0.389-0.016,0.544-0.046c0.154-0.031,0.282-0.071,0.381-0.117v3.132l1.103,0.123
			v-9.749h-1.008v0.694h-0.027c-0.027-0.056-0.077-0.129-0.15-0.226c-0.073-0.095-0.172-0.19-0.299-0.286
			c-0.127-0.094-0.286-0.177-0.477-0.245c-0.19-0.067-0.414-0.102-0.667-0.102c-0.309,0-0.602,0.062-0.878,0.184
			c-0.277,0.122-0.52,0.317-0.729,0.585c-0.208,0.269-0.374,0.612-0.497,1.036C89.727,58.005,89.666,58.516,89.666,59.115z
			 M92.253,56.759c0.172,0,0.325,0.024,0.462,0.068c0.137,0.044,0.254,0.104,0.355,0.17c0.099,0.07,0.183,0.139,0.251,0.211
			c0.068,0.072,0.12,0.135,0.157,0.19v4.03c-0.1,0.064-0.215,0.117-0.348,0.164c-0.13,0.045-0.296,0.068-0.497,0.068
			c-0.253,0-0.492-0.042-0.714-0.129c-0.223-0.086-0.416-0.229-0.579-0.429c-0.163-0.198-0.293-0.458-0.389-0.775
			s-0.143-0.708-0.143-1.17c0-0.455,0.039-0.834,0.117-1.138c0.076-0.304,0.183-0.549,0.319-0.735
			c0.136-0.186,0.291-0.319,0.462-0.401C91.88,56.8,92.062,56.759,92.253,56.759z M103.799,62.479l-1.988-6.535h-0.981l-0.667,2.286
			c-0.099,0.327-0.183,0.631-0.251,0.913c-0.068,0.281-0.112,0.549-0.129,0.802h-0.027c-0.019-0.253-0.068-0.525-0.15-0.814
			c-0.081-0.292-0.177-0.596-0.287-0.914l-0.749-2.273h-0.939l-2.056,6.535h1.184l0.98-3.705c0.09-0.343,0.171-0.664,0.239-0.958
			c0.067-0.295,0.106-0.576,0.116-0.838h0.027c0.027,0.263,0.083,0.539,0.17,0.824c0.085,0.286,0.183,0.597,0.292,0.933l0.708,2.137
			l-0.489,1.607h1.144l0.993-3.609c0.1-0.372,0.192-0.722,0.273-1.048c0.082-0.326,0.126-0.608,0.135-0.844h0.028
			c0.019,0.236,0.063,0.52,0.137,0.851c0.072,0.331,0.158,0.678,0.257,1.042l0.968,3.609H103.799z M105.923,55.943h-1.102v6.535
			h1.102V55.943z M105.378,64.057c-0.228,0-0.408,0.073-0.544,0.22c-0.136,0.144-0.205,0.335-0.205,0.571
			c0,0.226,0.069,0.412,0.205,0.559c0.136,0.145,0.316,0.217,0.544,0.217c0.218,0,0.395-0.072,0.532-0.217
			c0.136-0.146,0.203-0.333,0.203-0.559c0-0.236-0.067-0.427-0.203-0.571C105.773,64.13,105.597,64.057,105.378,64.057z
			 M110.484,61.512c-0.027,0.018-0.087,0.039-0.177,0.067c-0.09,0.027-0.213,0.042-0.367,0.042c-0.346,0-0.615-0.094-0.81-0.28
			c-0.196-0.186-0.335-0.388-0.416-0.604v-4.793h-1.104v6.535h1.009v-0.886h0.026c0.046,0.127,0.104,0.252,0.177,0.375
			c0.072,0.122,0.164,0.232,0.272,0.327c0.11,0.096,0.238,0.17,0.388,0.225c0.15,0.053,0.33,0.081,0.538,0.081
			c0.155,0,0.279-0.013,0.375-0.04c0.095-0.026,0.169-0.049,0.223-0.068L110.484,61.512z M114.366,61.579h-1.431v-3.622
			c0-0.462,0.059-0.778,0.177-0.947c0.119-0.167,0.318-0.251,0.599-0.251c0.164,0,0.304,0.024,0.422,0.068
			c0.118,0.044,0.204,0.087,0.259,0.123l0.149-0.885c-0.044-0.036-0.153-0.095-0.326-0.17c-0.173-0.078-0.404-0.116-0.694-0.116
			c-0.563,0-0.986,0.157-1.267,0.469c-0.281,0.313-0.422,0.834-0.422,1.561v3.77h-0.79v0.736l0.79,0.164l0.123,1.825h0.98v-1.825
			h1.566L114.366,61.579z M118.436,61.157c-0.072,0.081-0.204,0.194-0.395,0.335c-0.189,0.14-0.439,0.209-0.748,0.209
			c-0.292,0-0.514-0.068-0.667-0.204c-0.155-0.136-0.231-0.298-0.231-0.489c0-0.245,0.069-0.448,0.21-0.607
			c0.142-0.158,0.357-0.329,0.647-0.511l0.409-0.244c0.444-0.264,0.794-0.547,1.049-0.852c0.253-0.305,0.38-0.696,0.38-1.177
			c0-0.518-0.18-0.953-0.539-1.308c-0.357-0.354-0.873-0.531-1.545-0.531c-0.263,0-0.494,0.027-0.695,0.083
			c-0.199,0.055-0.374,0.116-0.523,0.189c-0.15,0.071-0.274,0.151-0.375,0.237c-0.099,0.087-0.181,0.167-0.244,0.24l0.531,0.871
			c0.054-0.056,0.121-0.118,0.197-0.19c0.077-0.073,0.169-0.142,0.28-0.211c0.108-0.066,0.231-0.126,0.367-0.17
			c0.136-0.044,0.295-0.068,0.477-0.068c0.326,0,0.576,0.073,0.748,0.218c0.173,0.145,0.259,0.322,0.259,0.532
			c0,0.155-0.021,0.288-0.061,0.4c-0.041,0.114-0.102,0.216-0.184,0.307c-0.083,0.09-0.182,0.177-0.299,0.257
			c-0.118,0.083-0.255,0.174-0.409,0.274l-0.408,0.258c-0.409,0.265-0.729,0.541-0.959,0.831c-0.232,0.29-0.349,0.663-0.349,1.117
			c0,0.246,0.048,0.469,0.144,0.674c0.095,0.204,0.229,0.38,0.401,0.53c0.171,0.15,0.374,0.269,0.606,0.355
			c0.23,0.085,0.478,0.13,0.741,0.13c0.255,0,0.473-0.027,0.655-0.077c0.181-0.049,0.336-0.113,0.468-0.189
			c0.132-0.079,0.241-0.155,0.327-0.234c0.086-0.077,0.156-0.142,0.211-0.196L118.436,61.157z M124.019,61.212
			c-0.026,0.026-0.07,0.068-0.128,0.122c-0.059,0.056-0.135,0.109-0.225,0.164c-0.091,0.053-0.2,0.103-0.327,0.143
			c-0.129,0.042-0.273,0.061-0.435,0.061c-0.237,0-0.457-0.042-0.661-0.128c-0.205-0.087-0.381-0.225-0.531-0.416
			s-0.268-0.438-0.354-0.742c-0.086-0.304-0.13-0.673-0.13-1.11c0-0.479,0.039-0.885,0.115-1.211
			c0.078-0.327,0.183-0.586,0.321-0.783c0.137-0.195,0.301-0.336,0.497-0.422c0.195-0.087,0.41-0.13,0.646-0.13
			c0.337,0,0.593,0.058,0.771,0.178c0.175,0.117,0.301,0.211,0.374,0.286l0.45-0.763c-0.047-0.055-0.111-0.12-0.199-0.197
			c-0.086-0.077-0.195-0.152-0.333-0.223c-0.136-0.073-0.303-0.134-0.497-0.186c-0.196-0.05-0.421-0.074-0.675-0.074
			c-0.363,0-0.703,0.059-1.02,0.177c-0.318,0.118-0.596,0.314-0.832,0.585c-0.236,0.273-0.422,0.626-0.558,1.063
			s-0.204,0.976-0.204,1.62c0,0.628,0.082,1.158,0.245,1.593c0.162,0.436,0.376,0.789,0.639,1.056s0.556,0.463,0.878,0.588
			c0.323,0.12,0.648,0.184,0.976,0.184c0.242,0,0.46-0.024,0.646-0.071c0.186-0.043,0.344-0.101,0.475-0.168
			c0.133-0.069,0.242-0.142,0.329-0.219c0.086-0.076,0.156-0.143,0.212-0.197L124.019,61.212z M129.206,55.943v4.208
			c0,0.553-0.092,0.95-0.28,1.19c-0.184,0.241-0.467,0.36-0.849,0.36c-0.328,0-0.599-0.08-0.816-0.245
			c-0.22-0.163-0.392-0.322-0.517-0.477v-5.036h-1.104v9.625l1.104,0.123v-3.881h0.026c0.036,0.054,0.092,0.127,0.169,0.219
			c0.076,0.09,0.185,0.181,0.322,0.271c0.134,0.093,0.3,0.171,0.497,0.24c0.195,0.068,0.423,0.103,0.686,0.103
			c0.574,0,1.025-0.187,1.361-0.561c0.337-0.373,0.505-0.989,0.505-1.852v-4.288H129.206z M131.575,57.603
			c0,0.381,0.074,0.699,0.219,0.954c0.146,0.253,0.34,0.46,0.585,0.619c0.246,0.159,0.533,0.273,0.866,0.338
			c0.33,0.07,0.681,0.104,1.055,0.104h0.338v0.625c0,0.554-0.096,0.937-0.292,1.145c-0.194,0.208-0.47,0.312-0.824,0.312
			c-0.325,0-0.599-0.069-0.817-0.209c-0.217-0.141-0.389-0.267-0.517-0.375l-0.463,0.734c0.073,0.074,0.167,0.155,0.279,0.246
			c0.114,0.089,0.254,0.177,0.416,0.258c0.164,0.082,0.349,0.152,0.559,0.206c0.208,0.055,0.444,0.083,0.708,0.083
			c0.671,0,1.18-0.187,1.524-0.561c0.345-0.373,0.517-0.97,0.517-1.796v-2.983c0-0.281,0.01-0.556,0.028-0.823
			c0.019-0.268,0.037-0.447,0.054-0.537h-1.048l-0.04,0.721h-0.027c-0.037-0.083-0.091-0.174-0.164-0.279
			c-0.073-0.105-0.164-0.2-0.271-0.287c-0.109-0.085-0.241-0.161-0.395-0.226c-0.154-0.063-0.336-0.094-0.546-0.094
			c-0.245,0-0.474,0.044-0.687,0.138c-0.215,0.089-0.4,0.216-0.558,0.379c-0.16,0.164-0.282,0.358-0.37,0.579
			C131.619,57.098,131.575,57.339,131.575,57.603z M133.551,56.718c0.154,0,0.291,0.024,0.408,0.069
			c0.119,0.044,0.221,0.1,0.308,0.163c0.084,0.062,0.159,0.134,0.216,0.209c0.06,0.079,0.112,0.144,0.156,0.2v1.442l-0.353-0.015
			c-0.527-0.018-0.926-0.108-1.198-0.271c-0.271-0.164-0.409-0.426-0.409-0.791c0-0.335,0.077-0.588,0.232-0.755
			C133.065,56.802,133.278,56.718,133.551,56.718z M140.143,61.579h-1.336v-5.635h-1.104v5.635h-0.788v0.736l0.788,0.15v1.307
			c0,0.354,0.052,0.658,0.151,0.914c0.101,0.252,0.231,0.462,0.395,0.625c0.162,0.163,0.352,0.281,0.573,0.353
			c0.216,0.074,0.448,0.11,0.691,0.11c0.236,0,0.438-0.03,0.601-0.095c0.164-0.064,0.271-0.115,0.327-0.151l-0.232-0.911
			c-0.055,0.036-0.131,0.075-0.23,0.116c-0.102,0.039-0.224,0.061-0.368,0.061c-0.265,0-0.463-0.082-0.599-0.245
			c-0.137-0.163-0.205-0.462-0.205-0.899v-1.17h1.472L140.143,61.579z M144.021,61.579h-1.428v-3.622
			c0-0.462,0.059-0.778,0.177-0.947c0.118-0.167,0.316-0.251,0.599-0.251c0.164,0,0.304,0.024,0.422,0.068
			c0.118,0.044,0.204,0.087,0.257,0.123l0.151-0.885c-0.045-0.036-0.154-0.095-0.326-0.17c-0.173-0.078-0.403-0.116-0.694-0.116
			c-0.563,0-0.983,0.157-1.266,0.469c-0.282,0.313-0.424,0.834-0.424,1.561v3.77H140.7v0.736l0.788,0.164l0.124,1.825h0.98v-1.825
			h1.565L144.021,61.579z M152.736,55.943h-1.008v0.733H151.7c-0.027-0.053-0.086-0.133-0.178-0.238
			c-0.089-0.104-0.205-0.204-0.346-0.301c-0.14-0.093-0.311-0.178-0.512-0.249c-0.198-0.075-0.422-0.11-0.665-0.11
			c-0.29,0-0.553,0.043-0.784,0.13c-0.23,0.083-0.428,0.224-0.592,0.414c-0.164,0.191-0.289,0.439-0.374,0.744
			c-0.088,0.304-0.131,0.676-0.131,1.121v4.291h1.104v-4.208c0-0.545,0.088-0.933,0.266-1.165c0.178-0.232,0.452-0.348,0.824-0.348
			c0.317,0,0.586,0.08,0.803,0.238c0.218,0.158,0.39,0.315,0.517,0.471v5.011h1.104V55.943z M157.992,55.943v4.208
			c0,0.553-0.092,0.95-0.279,1.19c-0.186,0.241-0.471,0.36-0.85,0.36c-0.329,0-0.6-0.08-0.818-0.245
			c-0.218-0.163-0.39-0.322-0.517-0.477v-5.036h-1.104v6.535h1.009v-0.737h0.026c0.026,0.056,0.087,0.136,0.177,0.239
			c0.092,0.105,0.208,0.205,0.354,0.299c0.146,0.098,0.318,0.182,0.516,0.254c0.201,0.072,0.428,0.109,0.682,0.109
			c0.291,0,0.556-0.045,0.789-0.13c0.237-0.086,0.437-0.227,0.599-0.416c0.167-0.19,0.291-0.438,0.384-0.742
			c0.089-0.304,0.136-0.68,0.136-1.124v-4.288H157.992z M160.442,59.115c0,0.662,0.087,1.216,0.261,1.661
			c0.172,0.444,0.394,0.803,0.666,1.075c0.272,0.273,0.581,0.466,0.925,0.58c0.346,0.114,0.691,0.169,1.037,0.169
			c0.207,0,0.389-0.016,0.544-0.046c0.154-0.031,0.28-0.071,0.381-0.117v3.132l1.103,0.123v-9.749h-1.008v0.694h-0.026
			c-0.027-0.056-0.077-0.129-0.15-0.226c-0.071-0.095-0.174-0.19-0.299-0.286c-0.128-0.094-0.287-0.177-0.479-0.245
			c-0.189-0.067-0.411-0.102-0.665-0.102c-0.309,0-0.603,0.062-0.878,0.184c-0.278,0.122-0.521,0.317-0.728,0.585
			c-0.21,0.269-0.377,0.612-0.499,1.036C160.503,58.005,160.442,58.516,160.442,59.115z M163.03,56.759
			c0.173,0,0.327,0.024,0.464,0.068c0.135,0.044,0.253,0.104,0.353,0.17c0.102,0.07,0.185,0.139,0.253,0.211
			c0.067,0.072,0.121,0.135,0.156,0.19v4.03c-0.101,0.064-0.215,0.117-0.346,0.164c-0.133,0.045-0.298,0.068-0.5,0.068
			c-0.253,0-0.49-0.042-0.715-0.129c-0.222-0.086-0.414-0.229-0.576-0.429c-0.163-0.198-0.293-0.458-0.389-0.775
			c-0.097-0.318-0.144-0.708-0.144-1.17c0-0.455,0.038-0.834,0.118-1.138c0.074-0.304,0.182-0.549,0.317-0.735
			c0.138-0.186,0.292-0.319,0.461-0.401C162.657,56.8,162.841,56.759,163.03,56.759z M174.698,64.399h-3.35v-3.242h3.08v-0.939
			h-3.08v-3.294h3.692l-0.07-0.979h-4.807v9.394h4.617L174.698,64.399z M179.26,61.512c-0.026,0.018-0.083,0.039-0.176,0.067
			c-0.091,0.027-0.212,0.042-0.367,0.042c-0.347,0-0.615-0.094-0.812-0.28c-0.194-0.186-0.334-0.388-0.416-0.604v-4.793h-1.101
			v6.535h1.006v-0.886h0.028c0.045,0.127,0.104,0.252,0.175,0.375c0.074,0.122,0.165,0.232,0.274,0.327
			c0.107,0.096,0.238,0.17,0.388,0.225c0.148,0.053,0.33,0.081,0.537,0.081c0.155,0,0.28-0.013,0.377-0.04
			c0.095-0.026,0.169-0.049,0.223-0.068L179.26,61.512z M183.919,55.943v4.208c0,0.553-0.093,0.95-0.279,1.19
			c-0.186,0.241-0.472,0.36-0.853,0.36c-0.325,0-0.601-0.08-0.816-0.245c-0.219-0.163-0.391-0.322-0.517-0.477v-5.036h-1.103v6.535
			h1.007v-0.737h0.027c0.027,0.056,0.085,0.136,0.177,0.239c0.092,0.105,0.209,0.205,0.353,0.299
			c0.147,0.098,0.318,0.182,0.52,0.254c0.198,0.072,0.426,0.109,0.68,0.109c0.29,0,0.554-0.045,0.79-0.13
			c0.235-0.086,0.437-0.227,0.6-0.416c0.163-0.19,0.289-0.438,0.381-0.742c0.089-0.304,0.134-0.68,0.134-1.124v-4.288H183.919z
			 M186.286,57.603c0,0.381,0.074,0.699,0.219,0.954c0.145,0.253,0.34,0.46,0.587,0.619c0.242,0.159,0.53,0.273,0.863,0.338
			c0.331,0.07,0.683,0.104,1.057,0.104h0.339v0.625c0,0.554-0.097,0.937-0.292,1.145c-0.195,0.208-0.471,0.312-0.824,0.312
			c-0.328,0-0.599-0.069-0.816-0.209c-0.219-0.141-0.393-0.267-0.518-0.375l-0.465,0.734c0.074,0.074,0.167,0.155,0.281,0.246
			c0.112,0.089,0.252,0.177,0.415,0.258c0.162,0.082,0.347,0.152,0.558,0.206c0.208,0.055,0.446,0.083,0.707,0.083
			c0.674,0,1.18-0.187,1.526-0.561c0.344-0.373,0.518-0.97,0.518-1.796v-2.983c0-0.281,0.01-0.556,0.027-0.823
			c0.019-0.268,0.036-0.447,0.054-0.537h-1.049l-0.039,0.721h-0.027c-0.038-0.083-0.091-0.174-0.165-0.279
			c-0.071-0.105-0.162-0.2-0.271-0.287c-0.108-0.085-0.242-0.161-0.395-0.226c-0.155-0.063-0.336-0.094-0.545-0.094
			c-0.245,0-0.475,0.044-0.688,0.138c-0.213,0.089-0.397,0.216-0.557,0.379c-0.162,0.164-0.283,0.358-0.37,0.579
			C186.33,57.098,186.286,57.339,186.286,57.603z M188.261,56.718c0.156,0,0.292,0.024,0.409,0.069
			c0.118,0.044,0.22,0.1,0.307,0.163c0.087,0.062,0.158,0.134,0.218,0.209c0.06,0.079,0.111,0.144,0.156,0.2v1.442l-0.354-0.015
			c-0.529-0.018-0.926-0.108-1.197-0.271c-0.273-0.164-0.409-0.426-0.409-0.791c0-0.335,0.076-0.588,0.23-0.755
			C187.776,56.802,187.991,56.718,188.261,56.718z M188.003,64.357c0-0.209-0.063-0.376-0.191-0.504
			c-0.126-0.127-0.281-0.19-0.462-0.19c-0.183,0-0.337,0.063-0.464,0.19c-0.126,0.127-0.189,0.295-0.189,0.504
			c0,0.21,0.063,0.377,0.189,0.504c0.127,0.127,0.281,0.19,0.464,0.19c0.181,0,0.336-0.063,0.462-0.19
			C187.94,64.734,188.003,64.567,188.003,64.357z M190.1,64.357c0-0.209-0.063-0.376-0.191-0.504c-0.127-0.127-0.28-0.19-0.461-0.19
			c-0.182,0-0.338,0.063-0.463,0.19c-0.127,0.127-0.192,0.295-0.192,0.504c0,0.21,0.065,0.377,0.192,0.504
			c0.125,0.127,0.281,0.19,0.463,0.19c0.181,0,0.334-0.063,0.461-0.19C190.037,64.734,190.1,64.567,190.1,64.357z M195.668,55.943
			v4.208c0,0.553-0.093,0.95-0.279,1.19c-0.186,0.241-0.47,0.36-0.851,0.36c-0.326,0-0.598-0.08-0.816-0.245
			c-0.218-0.163-0.39-0.322-0.519-0.477v-5.036h-1.102v9.625l1.102,0.123v-3.881h0.028c0.036,0.054,0.093,0.127,0.171,0.219
			c0.075,0.09,0.184,0.181,0.319,0.271c0.136,0.093,0.302,0.171,0.497,0.24c0.195,0.068,0.425,0.103,0.687,0.103
			c0.572,0,1.025-0.187,1.361-0.561c0.337-0.373,0.506-0.989,0.506-1.852v-4.288H195.668z M201.292,61.512
			c-0.027,0.018-0.086,0.039-0.178,0.067c-0.089,0.027-0.213,0.042-0.366,0.042c-0.346,0-0.615-0.094-0.811-0.28
			c-0.195-0.186-0.334-0.388-0.414-0.604v-4.793h-1.104v6.535h1.008v-0.886h0.026c0.045,0.127,0.106,0.252,0.175,0.375
			c0.076,0.122,0.165,0.232,0.274,0.327c0.109,0.096,0.239,0.17,0.388,0.225c0.15,0.053,0.328,0.081,0.538,0.081
			c0.156,0,0.278-0.013,0.376-0.04c0.094-0.026,0.17-0.049,0.224-0.068L201.292,61.512z M206.956,55.943h-1.006v0.733h-0.028
			c-0.025-0.053-0.086-0.133-0.176-0.238c-0.092-0.104-0.207-0.204-0.349-0.301c-0.141-0.093-0.311-0.178-0.511-0.249
			c-0.2-0.075-0.422-0.11-0.667-0.11c-0.291,0-0.549,0.043-0.781,0.13c-0.232,0.083-0.432,0.224-0.594,0.414
			c-0.163,0.191-0.288,0.439-0.376,0.744c-0.086,0.304-0.129,0.676-0.129,1.121v4.291h1.104v-4.208c0-0.545,0.089-0.933,0.264-1.165
			c0.179-0.232,0.452-0.348,0.826-0.348c0.317,0,0.585,0.08,0.805,0.238c0.214,0.158,0.39,0.315,0.515,0.471v5.011h1.103V55.943z
			 M212.213,55.943v4.208c0,0.553-0.094,0.95-0.28,1.19c-0.185,0.241-0.468,0.36-0.851,0.36c-0.327,0-0.598-0.08-0.816-0.245
			c-0.218-0.163-0.39-0.322-0.518-0.477v-5.036h-1.102v6.535h1.008v-0.737h0.026c0.026,0.056,0.086,0.136,0.178,0.239
			c0.089,0.105,0.207,0.205,0.352,0.299c0.145,0.098,0.318,0.182,0.52,0.254c0.198,0.072,0.426,0.109,0.68,0.109
			c0.29,0,0.553-0.045,0.79-0.13c0.235-0.086,0.435-0.227,0.599-0.416c0.162-0.19,0.293-0.438,0.382-0.742
			c0.09-0.304,0.137-0.68,0.137-1.124v-4.288H212.213z M219.647,61.621h-0.818c0.21-0.346,0.313-0.736,0.313-1.172
			c0-0.346-0.055-0.657-0.17-0.935c-0.114-0.275-0.271-0.509-0.475-0.698c-0.207-0.191-0.446-0.338-0.725-0.436
			c-0.274-0.101-0.572-0.151-0.891-0.151c-0.063,0-0.123,0-0.179,0c-0.052,0-0.112,0.006-0.176,0.015
			c-0.108-0.047-0.222-0.119-0.339-0.219c-0.12-0.1-0.178-0.231-0.178-0.394c0-0.136,0.052-0.247,0.156-0.335
			c0.104-0.084,0.276-0.129,0.51-0.129h0.832c0.308,0,0.594-0.031,0.857-0.094c0.264-0.065,0.491-0.167,0.687-0.305
			c0.196-0.141,0.349-0.321,0.46-0.539c0.106-0.218,0.161-0.481,0.161-0.791c0-0.354-0.075-0.675-0.226-0.967
			c-0.15-0.29-0.36-0.541-0.633-0.749c-0.273-0.209-0.604-0.373-0.995-0.49c-0.388-0.119-0.825-0.179-1.307-0.179
			c-0.698,0-1.229,0.151-1.592,0.457c-0.363,0.305-0.545,0.744-0.545,1.315c0,0.244,0.041,0.455,0.13,0.634
			c0.086,0.175,0.188,0.33,0.304,0.461c0.12,0.133,0.239,0.236,0.363,0.313c0.122,0.078,0.22,0.138,0.291,0.183v0.028
			c-0.279,0.208-0.421,0.513-0.421,0.913c0,0.171,0.033,0.321,0.104,0.449c0.068,0.125,0.145,0.23,0.23,0.312
			c0.084,0.082,0.172,0.147,0.257,0.197c0.087,0.05,0.151,0.084,0.198,0.103v0.026c-0.336,0.155-0.607,0.399-0.809,0.729
			c-0.205,0.331-0.308,0.756-0.308,1.273c0,0.364,0.061,0.682,0.176,0.959c0.12,0.276,0.278,0.507,0.478,0.688
			c0.2,0.181,0.434,0.319,0.7,0.41c0.27,0.088,0.559,0.136,0.865,0.136c0.311,0,0.598-0.057,0.872-0.165h1.987L219.647,61.621z
			 M216.611,56.147c-0.191,0-0.359,0.014-0.504,0.04c-0.082-0.046-0.163-0.1-0.238-0.163c-0.079-0.064-0.147-0.141-0.212-0.232
			c-0.063-0.091-0.115-0.197-0.157-0.32c-0.041-0.121-0.06-0.265-0.06-0.428c0-0.7,0.386-1.049,1.156-1.049
			c0.663,0,1.152,0.128,1.472,0.387c0.317,0.258,0.475,0.556,0.475,0.893c0,0.318-0.101,0.542-0.3,0.673
			c-0.197,0.132-0.467,0.199-0.803,0.199H216.611z M218.068,60.449c0,0.473-0.112,0.807-0.336,1.007
			c-0.222,0.2-0.482,0.301-0.783,0.301c-0.314,0-0.589-0.101-0.815-0.301c-0.227-0.2-0.341-0.534-0.341-1.007
			s0.114-0.81,0.341-1.007c0.227-0.2,0.49-0.3,0.788-0.3c0.32,0,0.589,0.1,0.811,0.3C217.956,59.64,218.068,59.977,218.068,60.449z"
			/>
	</g>
	<g id="Adler-und-Saeulenelement">
		<path d="M42.534,33.571c0.031-0.256,0.049-0.52,0.049-0.79c0-0.148,0.001-0.32-0.016-0.514c2.278-0.033,4.28-1.676,4.28-3.565
			c0-0.961-0.627-1.687-0.981-2.121c0.08-0.017,0.16-0.035,0.24-0.053c0.334,0.29,1.282,1.323,1.282,2.625
			C47.389,31.42,45.124,33.523,42.534,33.571 M40.237,25.677c-0.042-0.254-0.139-0.482-0.285-0.677
			c0.008-0.233,0.104-0.453,0.475-0.271c-0.201,0.206-0.046,0.57-0.046,0.57s0.413-0.19,0.327-0.461
			C41.317,24.982,40.878,25.802,40.237,25.677 M39.708,26.839c-0.082-0.336-0.256-0.685-0.477-0.948
			c-0.201-0.238-0.535-0.521-0.983-0.521c-0.204,0-0.547,0.096-0.766,0.188c-0.081-0.147-0.241-0.506-0.241-0.668
			c0-0.165,0.28-0.333,0.817-0.333c1.182,0,1.887,0.533,1.887,1.428C39.944,26.299,39.819,26.585,39.708,26.839 M42.74,42.058
			c0.137,0,0.204,0.021,0.284,0.053c0.34,0.923,1.65,2.667,1.704,2.742l0.012,0.017l0.02-0.005c0.321-0.05,1.142-0.174,1.828-0.174
			h0.017c0.074,0,0.159,0,0.212,0.053c0.045,0.045,0.065,0.121,0.065,0.233c0,0.172-0.071,0.462-0.158,0.587
			c-0.241-0.263-0.63-0.38-1.255-0.38c-0.188,0-0.41,0.056-0.53,0.087l-0.049,0.012l-0.056,0.014l0.361,0.36
			c0.556,0.557,1.036,1.036,1.036,1.355c0,0.193-0.187,0.442-0.36,0.554c-0.037-0.585-0.627-1.367-1.203-1.804l-0.05-0.039
			l-0.009,0.207c-0.007,0.141-0.021,0.349-0.021,0.572c0,1.113-0.113,1.284-0.499,1.284c-0.059,0-0.15-0.017-0.206-0.038
			c0.218-0.269,0.303-0.625,0.303-1.246l-0.003-0.288l-0.004-0.231c0-0.255,0.027-0.443,0.048-0.597l0.012-0.085l-0.061-0.007
			c-0.182-0.026-0.517-0.072-0.772-0.072c-0.55,0-0.924,0.05-1.193,0.306c-0.179-0.146-0.362-0.393-0.362-0.549
			c0-0.234,0.145-0.252,0.335-0.252c0.096,0,0.185,0.014,0.309,0.028c0.237,0.036,0.592,0.088,1.326,0.088h0.046l-0.015-0.045
			c-0.185-0.531-0.696-1.303-1.514-2.298C42.41,42.233,42.482,42.058,42.74,42.058 M35.675,44.798l-0.015,0.045h0.046
			c0.732,0,1.09-0.053,1.326-0.088c0.124-0.014,0.212-0.028,0.309-0.028c0.188,0,0.334,0.018,0.334,0.252
			c0,0.156-0.182,0.403-0.36,0.549c-0.271-0.256-0.644-0.306-1.194-0.306c-0.258,0-0.593,0.046-0.773,0.072l-0.028,0.003
			l-0.032,0.004l0.01,0.085c0.022,0.153,0.048,0.341,0.048,0.597l-0.003,0.231l-0.004,0.288c0,0.621,0.085,0.977,0.304,1.246
			c-0.058,0.021-0.147,0.038-0.208,0.038c-0.386,0-0.498-0.171-0.498-1.284c0-0.223-0.012-0.432-0.02-0.572l-0.011-0.208
			l-0.049,0.04c-0.574,0.437-1.167,1.219-1.202,1.804c-0.172-0.112-0.36-0.361-0.36-0.554c0-0.319,0.48-0.798,1.036-1.355
			l0.32-0.318l0.041-0.042l-0.105-0.026c-0.121-0.031-0.342-0.087-0.53-0.087c-0.625,0-1.013,0.117-1.255,0.38
			c-0.087-0.125-0.159-0.416-0.159-0.587c0-0.112,0.022-0.188,0.066-0.233c0.054-0.053,0.139-0.053,0.212-0.053h0.017
			c0.686,0,1.507,0.124,1.828,0.174l0.02,0.005l0.013-0.017c0.055-0.075,1.364-1.819,1.704-2.742
			c0.079-0.033,0.146-0.053,0.284-0.053c0.257,0,0.329,0.175,0.403,0.442C36.371,43.496,35.86,44.267,35.675,44.798 M32.137,29.153
			c0-1.302,0.948-2.335,1.282-2.625c0.079,0.018,0.161,0.036,0.24,0.053c-0.355,0.434-0.982,1.159-0.982,2.121
			c0,1.91,2.04,3.567,4.348,3.567c-0.015,0.163-0.022,0.334-0.022,0.512c0,0.281,0.016,0.542,0.043,0.79
			C34.436,33.556,32.137,31.436,32.137,29.153 M49.651,33.173c1.17,1.852,2.087,1.822,3.472,1.822
			c-1.146-0.877-1.903-2.003-2.264-2.577l-2.14-3.424c-0.208-1.057-0.756-2.045-1.574-2.781c0.274-0.105,0.504-0.213,0.643-0.318
			c-1.398,0-2.782-0.711-3.545-0.711c-0.49,0-0.804,0.294-0.804,0.681c0.032,0.432,0.476,0.869,1.295,0.869
			c0.186,0,0.423-0.021,0.684-0.067c0.444,0.619,0.803,1.179,0.803,1.979c0,1.499-1.792,2.667-3.601,2.667
			c-0.103,0-0.2-0.004-0.302-0.011c-0.164-0.372-0.71-0.995-0.71-1.706c0-1.19,0.777-2.163,0.777-3.343
			c0-0.733-0.355-1.186-0.494-1.376c0.223-0.207,0.465-0.458,0.522-0.632c-0.129,0.056-0.283,0.063-0.505,0.063
			c-0.869,0-1.576-0.226-2.264-0.226c-0.394,0-0.499,0.121-0.499,0.237c0,0.042,0.005,0.085,0.017,0.107
			c-0.146-0.059-0.284-0.094-0.447-0.125c-0.204-0.039-0.423-0.059-0.657-0.059c-0.837,0-1.134,0.352-1.134,0.652
			c0,0.255,0.2,0.719,0.429,1.074c0.326-0.166,0.717-0.276,0.896-0.276c0.445,0,0.841,0.423,1.049,0.925
			c-0.298,0.036-0.354,0.05-0.657,0.05c-0.816,0-1.372-0.293-1.485-0.293c-0.011,0-0.033,0.007-0.033,0.024
			c0,0.114,0.232,0.416,0.687,0.582c0.602,0.22,1.5,0.312,1.65,0.336c0,0.027-0.152,0.311-0.322,0.364
			c-0.036,0.013-0.064,0.014-0.106,0.004c-0.627-0.124-0.802-0.176-1.598-0.478c-0.024-0.009-0.038,0.004-0.038,0.031
			c0,0.314,0.814,1.008,1.544,1.275c-0.609,0.779-1.371,1.575-1.73,2.788c-0.101,0.007-0.201,0.011-0.302,0.011
			c-1.809,0-3.601-1.167-3.601-2.667c0-0.799,0.358-1.36,0.804-1.979c0.26,0.045,0.497,0.067,0.684,0.067
			c0.819,0,1.263-0.437,1.295-0.869c0-0.387-0.314-0.681-0.805-0.681c-0.762,0-2.145,0.711-3.544,0.711
			c0.138,0.105,0.368,0.212,0.641,0.318c-0.818,0.736-1.364,1.724-1.572,2.781l-2.14,3.424c-0.361,0.574-1.122,1.7-2.266,2.577
			c1.384,0,2.301,0.03,3.474-1.822l1.097-1.755c0.082,0.228,0.181,0.45,0.298,0.666l-2.183,3.492
			c-0.362,0.58-1.116,1.693-2.265,2.578c1.385,0,2.303,0.031,3.475-1.82l1.877-3.007c0.141,0.15,0.289,0.295,0.444,0.436
			l-2.65,4.242c-0.365,0.579-1.113,1.692-2.265,2.575c1.383,0,2.303,0.033,3.473-1.819l2.584-4.136
			c0.17,0.108,0.345,0.211,0.525,0.309l-3.155,5.048c-0.363,0.579-1.112,1.689-2.264,2.575c1.384,0,2.302,0.031,3.475-1.82
			l3.246-5.199c0.192,0.073,0.388,0.144,0.585,0.207l-3.669,5.873c-0.358,0.574-1.124,1.703-2.264,2.575
			c1.384,0,2.302,0.032,3.472-1.819l3.911-6.258c0.041,0.007,0.08,0.011,0.118,0.02c0.107,0.34,0.182,0.656,0.182,0.971
			c0,1.967-1.291,3.703-2.84,5.044c0.1,0.044,0.272,0.058,0.432,0.058c0.321,0,0.526-0.017,0.671-0.043
			c-0.358,0.817-1.129,1.871-1.519,2.415c-0.507-0.091-1.245-0.162-1.728-0.162c-0.505,0-0.563,0.295-0.563,0.559
			c0,0.458,0.216,0.824,0.465,1.028c0.094-0.235,0.282-0.547,1.217-0.547c0.018,0,0.05,0.001,0.093,0.004
			c-0.272,0.303-1.127,0.993-1.127,1.55c0,0.369,0.403,0.92,0.937,0.92c-0.032-0.118-0.028-0.228-0.028-0.31
			c0-0.449,0.399-0.977,0.737-1.346c-0.01,0.109-0.004,0.099-0.004,0.226c0,1.065,0.097,1.555,0.772,1.555
			c0.332,0,0.562-0.181,0.641-0.235c-0.439-0.406-0.463-0.722-0.463-1.319c0.001-0.155,0.002-0.308,0.004-0.519
			c0.001-0.136,0-0.316-0.022-0.446c0.242-0.033,0.34-0.033,0.526-0.033c0,0,0.961-0.077,1.192,0.422
			c0.261-0.239,0.64-0.577,0.64-0.946c0-0.247-0.117-0.527-0.612-0.527c-0.188,0-0.776,0.115-1.269,0.115
			c0.131-0.293,0.722-1.156,1.233-1.782c0.077,0.242,0.197,0.505,0.464,0.72c0.038-0.404,0.274-1.675,0.904-2.423
			c0.073,0.505,0.171,1.02,0.171,2.109c0,2.647-0.636,4.604-1.987,4.976c0.176,0.307,0.548,0.582,0.934,0.582
			c0.494,0,0.763-0.559,1.038-1.086c0.143,0.39,0.538,1.343,0.934,1.343c0.396,0,0.792-0.954,0.935-1.343
			c0.273,0.528,0.543,1.086,1.039,1.086c0.385,0,0.756-0.275,0.932-0.582c-1.351-0.372-1.988-2.329-1.988-4.976
			c0-1.089,0.098-1.604,0.17-2.109c0.631,0.748,0.869,2.019,0.904,2.423c0.27-0.214,0.39-0.478,0.467-0.72
			c0.511,0.626,1.101,1.489,1.233,1.782c-0.493,0-1.083-0.115-1.27-0.115c-0.495,0-0.612,0.28-0.612,0.527
			c0,0.369,0.38,0.707,0.641,0.946c0.229-0.5,1.192-0.422,1.192-0.422c0.185,0,0.284,0,0.526,0.033
			c-0.023,0.13-0.024,0.311-0.023,0.446c0.002,0.211,0.002,0.364,0.004,0.519c0,0.598-0.023,0.914-0.462,1.319
			c0.079,0.055,0.308,0.235,0.64,0.235c0.676,0,0.773-0.489,0.773-1.555c0-0.127,0.003-0.117-0.006-0.226
			c0.337,0.369,0.737,0.897,0.737,1.346c0,0.083,0.004,0.192-0.029,0.31c0.533,0,0.938-0.551,0.938-0.92
			c0-0.557-0.854-1.247-1.129-1.55c0.045-0.003,0.078-0.004,0.095-0.004c0.934,0,1.123,0.312,1.216,0.547
			c0.25-0.204,0.466-0.57,0.466-1.028c0-0.263-0.058-0.559-0.564-0.559c-0.482,0-1.22,0.071-1.727,0.162
			c-0.39-0.544-1.16-1.598-1.52-2.415c0.146,0.026,0.353,0.043,0.672,0.043c0.161,0,0.332-0.014,0.431-0.058
			c-1.549-1.341-2.839-3.077-2.839-5.044c0-0.315,0.073-0.631,0.181-0.971c0.037-0.009,0.079-0.012,0.117-0.02l3.911,6.258
			c1.171,1.852,2.09,1.819,3.472,1.819c-1.14-0.872-1.904-2.001-2.263-2.575l-3.67-5.873c0.199-0.063,0.395-0.133,0.587-0.207
			l3.246,5.199c1.172,1.851,2.09,1.82,3.474,1.82c-1.152-0.886-1.901-1.997-2.265-2.575l-3.154-5.048
			c0.179-0.098,0.354-0.201,0.524-0.309l2.584,4.136c1.172,1.853,2.088,1.819,3.473,1.819c-1.151-0.883-1.899-1.996-2.264-2.575
			l-2.65-4.242c0.155-0.141,0.304-0.286,0.442-0.436l1.88,3.007c1.17,1.851,2.088,1.82,3.473,1.82
			c-1.151-0.885-1.903-1.998-2.266-2.578l-2.181-3.492c0.117-0.216,0.216-0.438,0.299-0.666L49.651,33.173z"/>
		<path d="M64.077,48.057h-4.005V25.173h4.005V48.057z"/>
		<path fill="#FF0000" d="M64.077,70.941h-4.005V48.057h4.005V70.941z"/>
		<path fill="#FFCC00" d="M64.077,93.826h-4.005V70.941h4.005V93.826z"/>
	</g>
</g>
</svg>
