<svg xmlns="http://www.w3.org/2000/svg" width="236.24" height="81" focusable="false" viewBox="0 0 236.24 81">
<path class="icon" d="M26.75 10.46c1.35 2.13 2.4 2.1 4 2.1a11.4 11.4 0 01-2.6-2.97l-2.47-3.94a5.85 5.85 0 00-1.81-3.2 3.12 3.12 0 00.74-.36c-1.61 0-3.2-.82-4.08-.82a.82.82 0 00-.93.78c.04.5.55 1 1.5 1a4.79 4.79 0 00.78-.08 3.75 3.75 0 01.92 2.28c0 1.72-2.06 3.07-4.14 3.07-.12 0-.23 0-.35-.02a4.65 4.65 0 01-.82-1.96c0-1.37.9-2.49.9-3.85a2.54 2.54 0 00-.57-1.58 2.45 2.45 0 00.6-.72 1.45 1.45 0 01-.58.07c-1 0-1.81-.26-2.6-.26-.46 0-.58.14-.58.27a.35.35 0 00.02.13 2.63 2.63 0 00-.52-.14 4.05 4.05 0 00-.75-.07c-.96 0-1.3.4-1.3.75a2.95 2.95 0 00.49 1.24 2.93 2.93 0 011.03-.32c.51 0 .97.49 1.21 1.06a4.71 4.71 0 01-.76.06 5.79 5.79 0 01-1.7-.34c-.02 0-.05.01-.05.03 0 .13.27.48.8.67a10.5 10.5 0 001.9.39.84.84 0 01-.37.42.21.21 0 01-.13 0 8.61 8.61 0 01-1.84-.55c-.03 0-.04 0-.04.04 0 .36.93 1.16 1.77 1.46a9.4 9.4 0 00-1.99 3.21 3.7 3.7 0 01-.35.02c-2.08 0-4.14-1.35-4.14-3.07a3.75 3.75 0 01.92-2.28 5.07 5.07 0 00.8.08c.94 0 1.45-.5 1.49-1a.82.82 0 00-.93-.78c-.88 0-2.47.81-4.08.81a3.46 3.46 0 00.74.37 5.82 5.82 0 00-1.81 3.2L2.6 9.6A11.4 11.4 0 010 12.56c1.6 0 2.65.04 4-2.1l1.26-2.01a5.22 5.22 0 00.35.77l-2.52 4.01A11.34 11.34 0 01.5 16.2c1.59 0 2.64.04 4-2.09l2.16-3.46c.16.17.33.34.51.5l-3.05 4.88A11.33 11.33 0 011.5 19c1.6 0 2.65.04 4-2.1l2.97-4.75.6.36-3.63 5.8a11.27 11.27 0 01-2.6 2.96c1.59 0 2.64.04 4-2.09l3.73-5.98q.33.13.68.24L7.02 20.2a11.37 11.37 0 01-2.6 2.96c1.59 0 2.64.03 4-2.1l4.5-7.2.13.03a3.7 3.7 0 01.2 1.11c0 2.27-1.48 4.27-3.26 5.8a1.4 1.4 0 00.5.07 4.27 4.27 0 00.77-.05A18.22 18.22 0 019.5 23.6a13.18 13.18 0 00-1.98-.19c-.58 0-.65.34-.65.65a1.52 1.52 0 00.54 1.18c.1-.27.32-.63 1.4-.63h.1c-.31.36-1.3 1.15-1.3 1.8a1.17 1.17 0 001.08 1.05 1.27 1.27 0 01-.03-.36 2.76 2.76 0 01.85-1.55 1.89 1.89 0 000 .26c0 1.23.1 1.8.88 1.8a1.23 1.23 0 00.73-.28 1.67 1.67 0 01-.52-1.52v-.6a3.29 3.29 0 00-.03-.51 3.58 3.58 0 01.61-.04s1.1-.09 1.37.48c.3-.27.74-.66.74-1.09 0-.28-.13-.6-.7-.6-.22 0-.9.13-1.46.13a14.46 14.46 0 011.42-2.05 1.65 1.65 0 00.53.83 5.84 5.84 0 011.04-2.78 13.67 13.67 0 01.2 2.42c0 3.05-.73 5.3-2.29 5.73a1.33 1.33 0 001.08.67c.57 0 .88-.65 1.2-1.26.16.45.6 1.55 1.07 1.55s.9-1.1 1.07-1.55c.32.61.63 1.26 1.2 1.26a1.33 1.33 0 001.07-.67c-1.56-.43-2.29-2.69-2.29-5.73a13.66 13.66 0 01.2-2.42 5.83 5.83 0 011.04 2.78 1.62 1.62 0 00.54-.83 14.56 14.56 0 011.42 2.05c-.57 0-1.25-.13-1.46-.13-.57 0-.7.32-.7.6 0 .43.43.82.73 1.1.27-.58 1.37-.5 1.37-.5a3.61 3.61 0 01.61.05 3.28 3.28 0 00-.03.51v.6a1.67 1.67 0 01-.53 1.52 1.24 1.24 0 00.74.27c.78 0 .89-.56.89-1.79a2.01 2.01 0 00-.01-.26 2.75 2.75 0 01.85 1.55 1.27 1.27 0 01-.03.36 1.18 1.18 0 001.07-1.06c0-.64-.98-1.44-1.3-1.78l.11-.01c1.08 0 1.3.36 1.4.63a1.53 1.53 0 00.54-1.18c0-.3-.07-.65-.65-.65a13.22 13.22 0 00-1.99.19 18.36 18.36 0 01-1.75-2.78 4.55 4.55 0 00.78.05 1.45 1.45 0 00.5-.07c-1.79-1.54-3.27-3.54-3.27-5.8a3.77 3.77 0 01.2-1.11 1.25 1.25 0 01.14-.02l4.5 7.2c1.35 2.12 2.4 2.09 4 2.09a11.4 11.4 0 01-2.6-2.96l-4.24-6.76c.23-.07.45-.15.67-.24l3.74 5.98c1.35 2.13 2.4 2.1 4 2.1a11.3 11.3 0 01-2.61-2.97l-3.63-5.8.6-.35 2.98 4.75c1.35 2.13 2.4 2.1 4 2.1a11.4 11.4 0 01-2.61-2.97l-3.05-4.88c.18-.16.35-.33.5-.5l2.17 3.45c1.35 2.13 2.4 2.1 4 2.1a11.4 11.4 0 01-2.6-2.97L25.13 9.2a5.64 5.64 0 00.34-.76zM6.6 5.84a4.41 4.41 0 011.47-3.02l.28.06a3.93 3.93 0 00-1.13 2.44c0 2.2 2.35 4.1 5 4.1-.02.19-.02.39-.02.6a7.9 7.9 0 00.05.9c-3-.02-5.65-2.45-5.65-5.08zm4.07 18l-.02.05h.06a9.48 9.48 0 001.52-.1 2.74 2.74 0 01.36-.03c.22 0 .38.02.38.28a1.1 1.1 0 01-.41.64 1.89 1.89 0 00-1.38-.36 7.4 7.4 0 00-.88.09h-.07v.1a4.75 4.75 0 01.06.7V25.8a2.12 2.12 0 00.35 1.43.81.81 0 01-.23.04c-.45 0-.58-.2-.58-1.47l-.02-.66-.02-.24-.06.05a3.5 3.5 0 00-1.38 2.07.92.92 0 01-.41-.63c0-.37.55-.92 1.19-1.56l.36-.37.05-.05-.12-.03a2.59 2.59 0 00-.61-.1 1.85 1.85 0 00-1.44.44 1.53 1.53 0 01-.19-.68.37.37 0 01.08-.27.35.35 0 01.24-.06h.02a14.4 14.4 0 012.1.2h.04a18.59 18.59 0 001.96-3.17.82.82 0 01.33-.05c.3 0 .38.2.46.5a10.37 10.37 0 00-1.74 2.65zm8.13-3.15a.83.83 0 01.32.06 18.7 18.7 0 001.96 3.15l.02.02h.02a15.07 15.07 0 012.1-.2h.02a.35.35 0 01.24.05.38.38 0 01.08.27 1.52 1.52 0 01-.18.68 1.84 1.84 0 00-1.45-.44 2.62 2.62 0 00-.6.1l-.06.02-.07.02.42.41c.64.64 1.19 1.2 1.19 1.56a.93.93 0 01-.41.64A3.5 3.5 0 0021 24.95l-.06-.04v.23c-.02.17-.03.4-.03.66 0 1.28-.13 1.48-.58 1.48a.85.85 0 01-.23-.05 2.16 2.16 0 00.35-1.43V25.2a4.65 4.65 0 01.05-.68l.02-.1-.07-.01a7.43 7.43 0 00-.9-.08 1.87 1.87 0 00-1.37.35 1.1 1.1 0 01-.41-.64c0-.26.16-.28.38-.28a3.03 3.03 0 01.36.03 9.4 9.4 0 001.52.1h.06l-.02-.05a10.32 10.32 0 00-1.74-2.65c.08-.3.16-.5.46-.5zM15.3 3.18a2.75 2.75 0 00-.54-1.1 1.52 1.52 0 00-1.13-.6 2.75 2.75 0 00-.88.22 2.4 2.4 0 01-.28-.77c0-.19.32-.38.94-.38 1.36 0 2.17.61 2.17 1.64a2.42 2.42 0 01-.27.99zm.62-1.34a1.8 1.8 0 00-.33-.78c.01-.27.12-.52.55-.31-.24.24-.06.65-.06.65s.48-.22.38-.53c.7.17.2 1.12-.54.97zm2.64 9.08a7.41 7.41 0 00.06-.9c0-.17 0-.37-.02-.6 2.62-.03 4.92-1.92 4.92-4.1A3.92 3.92 0 0022.4 2.9l.28-.07a4.4 4.4 0 011.48 3.02c0 2.6-2.6 5.03-5.59 5.08z"></path>
<g class="flag">
<path d="M44.27 27.87h-4.64V1.3h4.64z"></path>
<path d="M44.27 54.44h-4.64V27.87h4.64z" fill="red"></path>
<path d="M44.27 81h-4.64V54.44h4.64z" fill="#fc0"></path>
</g>
<g class="title-full">
<path d="M60.56 4.28a3.2 3.2 0 01-.15 1 2.4 2.4 0 01-.39.75 2.07 2.07 0 01-.58.5 2.8 2.8 0 01-.68.29v.03a2.43 2.43 0 01.81.3 2.54 2.54 0 01.66.56 2.66 2.66 0 01.45.79 2.87 2.87 0 01.16 1 3.12 3.12 0 01-.22 1.2 2.45 2.45 0 01-.7.94 3.37 3.37 0 01-1.2.63 5.8 5.8 0 01-1.7.23h-2.26V1.46h2.13a6.11 6.11 0 011.67.2 3.15 3.15 0 011.15.57 2.12 2.12 0 01.65.89 3.2 3.2 0 01.2 1.16zm-1.41.04a1.64 1.64 0 00-.55-1.26 2.49 2.49 0 00-1.71-.5h-.73v3.81h.72a2.38 2.38 0 001.7-.54 1.97 1.97 0 00.57-1.5zm.2 5.1A1.8 1.8 0 0058.78 8a2.43 2.43 0 00-1.67-.52h-.94v3.87h.86a2.66 2.66 0 001.78-.49 1.83 1.83 0 00.56-1.45zm8.52 3.08h-1.19v-.86h-.03a1.57 1.57 0 01-.2.28 2.09 2.09 0 01-.41.35 2.73 2.73 0 01-.6.3 2.28 2.28 0 01-.79.13 2.62 2.62 0 01-.92-.16 1.67 1.67 0 01-.7-.48 2.27 2.27 0 01-.44-.88 4.9 4.9 0 01-.15-1.32V4.82h1.3v4.94a2.3 2.3 0 00.31 1.37 1.14 1.14 0 00.97.41 1.56 1.56 0 00.94-.28 3.31 3.31 0 00.61-.55V4.82h1.3zm6.11 0V7.56a2.32 2.32 0 00-.33-1.4 1.19 1.19 0 00-1-.43 1.55 1.55 0 00-.96.29 3.53 3.53 0 00-.6.56v5.92h-1.3V4.82h1.18v.86H71a1.57 1.57 0 01.2-.28 2 2 0 01.42-.35 2.93 2.93 0 01.61-.3 2.33 2.33 0 01.8-.13 2.69 2.69 0 01.93.16 1.67 1.67 0 01.7.48 2.36 2.36 0 01.45.88 4.67 4.67 0 01.16 1.32v5.04zm2.82-3.73a5.44 5.44 0 01.3-1.95 3.6 3.6 0 01.78-1.26 2.73 2.73 0 011.1-.68 3.87 3.87 0 011.2-.2 3.2 3.2 0 01.65.05 2.14 2.14 0 01.45.14V1.19l1.3-.15V12.5h-1.2v-.82h-.02a1.84 1.84 0 01-.18.27 1.78 1.78 0 01-.35.33 2.12 2.12 0 01-.56.3 2.33 2.33 0 01-.79.11 2.52 2.52 0 01-1.03-.21 2.23 2.23 0 01-.85-.7 3.59 3.59 0 01-.59-1.2 6.52 6.52 0 01-.21-1.8zm3.04 2.77a1.72 1.72 0 00.54-.08 1.68 1.68 0 00.42-.2 1.77 1.77 0 00.3-.25 1.81 1.81 0 00.18-.22V6.05a1.93 1.93 0 00-.4-.19 1.81 1.81 0 00-.59-.08 2.3 2.3 0 00-.84.15 1.64 1.64 0 00-.68.5 2.6 2.6 0 00-.45.91 4.85 4.85 0 00-.17 1.38 5.54 5.54 0 00.13 1.34 2.5 2.5 0 00.38.86 1.45 1.45 0 00.54.47 1.48 1.48 0 00.64.15zm9.58-4.13q0 .5-.03.86t-.07.63H85.4a3.42 3.42 0 00.58 2 1.82 1.82 0 001.5.64 2.15 2.15 0 00.61-.08 2.27 2.27 0 00.81-.42q.14-.1.2-.17l.48.91-.24.23a2.16 2.16 0 01-.43.3 3.1 3.1 0 01-.67.27 3.52 3.52 0 01-.95.1 3.4 3.4 0 01-1.3-.23 2.47 2.47 0 01-.99-.75 3.6 3.6 0 01-.63-1.28 6.78 6.78 0 01-.23-1.86 5.97 5.97 0 01.23-1.76A3.53 3.53 0 0185 5.57a2.52 2.52 0 01.93-.71 2.8 2.8 0 011.13-.23 2.2 2.2 0 011.73.7 3.04 3.04 0 01.63 2.08zm-2.43-1.73a1.3 1.3 0 00-1.1.58 3.15 3.15 0 00-.48 1.66h2.8a1.73 1.73 0 00.02-.23l.01-.33a2.08 2.08 0 00-.32-1.24 1.08 1.08 0 00-.93-.44zm7.4.7a3.26 3.26 0 00-.46-.4 1.45 1.45 0 00-.88-.25 1.15 1.15 0 00-.78.24.74.74 0 00-.27.58 1.03 1.03 0 00.24.71 3.51 3.51 0 00.76.6l.48.29a4.72 4.72 0 011.24 1 2.08 2.08 0 01.44 1.38 2.07 2.07 0 01-.63 1.54 2.48 2.48 0 01-1.81.62 3.12 3.12 0 01-.82-.1 3.57 3.57 0 01-.62-.22 2.02 2.02 0 01-.44-.28 2.93 2.93 0 01-.28-.28l.62-1.03.23.23a2.1 2.1 0 00.33.25 2.01 2.01 0 00.43.2 1.77 1.77 0 00.56.08 1.33 1.33 0 00.88-.26.79.79 0 00.3-.62 1.4 1.4 0 00-.07-.48 1.08 1.08 0 00-.22-.36 2 2 0 00-.35-.3l-.48-.32-.48-.3a4.63 4.63 0 01-1.13-.97 2.04 2.04 0 01-.4-1.31 1.83 1.83 0 01.64-1.42 2.3 2.3 0 01.71-.42 2.48 2.48 0 01.87-.15 2.92 2.92 0 01.77.09 2.3 2.3 0 01.55.22 2.39 2.39 0 01.39.28l.25.23zm6.26 6.12V7.56a2.57 2.57 0 00-.27-1.36.97.97 0 00-.88-.42 1.85 1.85 0 00-.57.08 1.97 1.97 0 00-.44.2 1.89 1.89 0 00-.33.26l-.24.26v5.92h-1.3V4.82h1.18v.86h.03a2.61 2.61 0 01.24-.3 2.2 2.2 0 01.4-.36 2.29 2.29 0 01.56-.28 2.17 2.17 0 01.72-.11 1.93 1.93 0 011.86 1.02 2.38 2.38 0 01.3-.34 2.46 2.46 0 01.45-.34 2.57 2.57 0 01.57-.25 2.44 2.44 0 01.7-.1q2.34 0 2.34 2.72v5.16h-1.3V7.56a2.17 2.17 0 00-.34-1.36 1.2 1.2 0 00-.99-.42 1.49 1.49 0 00-.9.26 3.46 3.46 0 00-.57.5l.05.38q.02.2.02.42v5.16zm8.5 0h-1.3V4.82h1.3zm-.64-9.54a.84.84 0 01-.64-.25.94.94 0 01-.24-.67.92.92 0 01.24-.66.84.84 0 01.64-.26.82.82 0 01.63.26.92.92 0 01.24.66.94.94 0 01-.24.67.82.82 0 01-.63.25zm6.75 9.54V7.56a2.32 2.32 0 00-.33-1.4 1.19 1.19 0 00-1-.43 1.55 1.55 0 00-.96.29 3.53 3.53 0 00-.6.56v5.92h-1.3V4.82h1.18v.86h.03a1.57 1.57 0 01.2-.28 2 2 0 01.42-.35 2.93 2.93 0 01.61-.3 2.33 2.33 0 01.8-.13 2.69 2.69 0 01.93.16 1.67 1.67 0 01.7.48 2.36 2.36 0 01.45.88 4.67 4.67 0 01.16 1.32v5.04zm4.46 0h-1.3V4.82h1.3zm-.64-9.54a.84.84 0 01-.64-.25.94.94 0 01-.24-.67.92.92 0 01.24-.66.84.84 0 01.64-.26.82.82 0 01.63.26.92.92 0 01.24.66.94.94 0 01-.24.67.82.82 0 01-.63.25zm5.88 3.41a3.26 3.26 0 00-.47-.39 1.45 1.45 0 00-.88-.25 1.15 1.15 0 00-.78.24.74.74 0 00-.27.58 1.03 1.03 0 00.24.71 3.51 3.51 0 00.76.6l.48.29a4.72 4.72 0 011.24 1 2.08 2.08 0 01.44 1.38 2.07 2.07 0 01-.63 1.54 2.48 2.48 0 01-1.81.62 3.12 3.12 0 01-.82-.1 3.57 3.57 0 01-.62-.22 2.02 2.02 0 01-.44-.28 2.93 2.93 0 01-.28-.28l.62-1.03.23.23a2.1 2.1 0 00.33.25 2.01 2.01 0 00.43.2 1.77 1.77 0 00.56.08 1.33 1.33 0 00.88-.26.79.79 0 00.3-.62 1.4 1.4 0 00-.07-.48 1.08 1.08 0 00-.22-.36 2 2 0 00-.35-.3l-.48-.32-.48-.3a4.63 4.63 0 01-1.13-.97 2.04 2.04 0 01-.4-1.31 1.83 1.83 0 01.64-1.42 2.3 2.3 0 01.71-.42 2.48 2.48 0 01.87-.15 2.92 2.92 0 01.77.09 2.3 2.3 0 01.55.22 2.39 2.39 0 01.39.28l.25.23zm5.5-.5h-1.68v4.26a2.08 2.08 0 00.2 1.11.8.8 0 00.7.3 1.38 1.38 0 00.5-.08 1.65 1.65 0 00.3-.14l.18 1.04a2.2 2.2 0 01-.38.2 2.03 2.03 0 01-.82.13 1.9 1.9 0 01-1.48-.55 2.72 2.72 0 01-.5-1.83V5.88h-.93V5l.93-.19.14-2.14h1.16v2.14h1.84zm6.22 1.54q0 .5-.03.85t-.07.64h-3.92a3.42 3.42 0 00.59 2 1.82 1.82 0 001.5.64 2.15 2.15 0 00.6-.08 2.27 2.27 0 00.81-.42q.14-.11.2-.18l.48.92-.24.23a2.16 2.16 0 01-.43.3 3.1 3.1 0 01-.67.27 3.52 3.52 0 01-.94.11 3.4 3.4 0 01-1.3-.24 2.47 2.47 0 01-1-.74 3.6 3.6 0 01-.63-1.28 6.78 6.78 0 01-.22-1.87 5.97 5.97 0 01.23-1.76 3.53 3.53 0 01.63-1.22 2.52 2.52 0 01.93-.72 2.8 2.8 0 011.14-.23 2.2 2.2 0 011.72.7 3.04 3.04 0 01.62 2.08zm-2.43-1.73a1.3 1.3 0 00-1.1.58 3.15 3.15 0 00-.48 1.66h2.8a1.73 1.73 0 00.03-.23v-.33a2.08 2.08 0 00-.32-1.24 1.08 1.08 0 00-.93-.44zm7.47.28a.93.93 0 00-.2-.08 1.56 1.56 0 00-.44-.05 1.32 1.32 0 00-.95.33 1.92 1.92 0 00-.49.7v5.64h-1.3V4.82h1.19v1.04h.03a2.54 2.54 0 01.2-.44 1.57 1.57 0 01.33-.38 1.42 1.42 0 01.45-.27 1.85 1.85 0 01.64-.1 1.65 1.65 0 01.44.05l.26.08zm2.52 6.54h-1.3V4.82h1.3zm-.64-9.54a.84.84 0 01-.64-.25.94.94 0 01-.24-.67.92.92 0 01.24-.66.84.84 0 01.64-.26.82.82 0 01.62.26.92.92 0 01.24.66.94.94 0 01-.24.67.82.82 0 01-.62.25zm7.93 9.54h-1.18v-.86h-.03a1.57 1.57 0 01-.21.28 2.09 2.09 0 01-.41.35 2.73 2.73 0 01-.6.3 2.28 2.28 0 01-.78.13 2.62 2.62 0 01-.92-.16 1.67 1.67 0 01-.7-.48 2.27 2.27 0 01-.44-.88 4.9 4.9 0 01-.16-1.32V4.82h1.3v4.94a2.3 2.3 0 00.32 1.37 1.14 1.14 0 00.96.41 1.56 1.56 0 00.95-.28 3.31 3.31 0 00.6-.55V4.82h1.3zm5.95 0V7.56a2.57 2.57 0 00-.27-1.36.97.97 0 00-.88-.42 1.85 1.85 0 00-.57.08 1.97 1.97 0 00-.44.2 1.89 1.89 0 00-.33.26l-.24.26v5.92h-1.3V4.82h1.18v.86h.03a2.61 2.61 0 01.24-.3 2.2 2.2 0 01.4-.36 2.29 2.29 0 01.56-.28 2.17 2.17 0 01.72-.11 1.93 1.93 0 011.86 1.02 2.38 2.38 0 01.3-.34 2.46 2.46 0 01.45-.34 2.57 2.57 0 01.57-.25 2.44 2.44 0 01.7-.1q2.34 0 2.34 2.72v5.16h-1.3V7.56a2.17 2.17 0 00-.34-1.36 1.2 1.2 0 00-.99-.42 1.49 1.49 0 00-.9.26 3.46 3.46 0 00-.57.5q.04.18.05.38t.02.42v5.16zm13.76-6.62h-1.56v6.62h-1.3V5.88h-.93V5l.93-.17V3.3a2.93 2.93 0 01.17-1.07 2.12 2.12 0 01.47-.74 1.7 1.7 0 01.67-.41 2.56 2.56 0 01.81-.13 1.95 1.95 0 01.7.11 2.33 2.33 0 01.39.18l-.27 1.07a1.6 1.6 0 00-.28-.14 1.14 1.14 0 00-.43-.07.86.86 0 00-.7.29 1.7 1.7 0 00-.24 1.05v1.38h1.73zm6.6 6.62h-1.19v-.86h-.03a1.57 1.57 0 01-.2.28 2.09 2.09 0 01-.42.35 2.73 2.73 0 01-.6.3 2.28 2.28 0 01-.78.13 2.62 2.62 0 01-.92-.16 1.67 1.67 0 01-.7-.48 2.27 2.27 0 01-.44-.88 4.9 4.9 0 01-.15-1.32V4.82h1.3v4.94a2.3 2.3 0 00.31 1.37 1.14 1.14 0 00.97.41 1.56 1.56 0 00.94-.28 3.31 3.31 0 00.61-.55V4.82h1.3zm-3.19-9.89a.8.8 0 01-.22.6.77.77 0 01-1.09 0 .8.8 0 01-.22-.6.8.8 0 01.22-.59.77.77 0 011.09 0 .8.8 0 01.22.6zm2.47 0a.8.8 0 01-.23.6.77.77 0 01-1.09 0 .8.8 0 01-.22-.6.8.8 0 01.22-.59.77.77 0 011.1 0 .8.8 0 01.22.6zm6.01 3.35a.93.93 0 00-.2-.08 1.56 1.56 0 00-.44-.05 1.32 1.32 0 00-.95.33 1.92 1.92 0 00-.49.7v5.64h-1.3V4.82h1.19v1.04h.03a2.54 2.54 0 01.2-.44 1.57 1.57 0 01.33-.38 1.42 1.42 0 01.45-.27 1.85 1.85 0 01.63-.1 1.65 1.65 0 01.44.05l.27.08zM63.34 20.82L61 28.5h-1.15l-.78-2.69q-.18-.57-.3-1.07a5.77 5.77 0 01-.15-.94h-.03a4.83 4.83 0 01-.18.96q-.14.51-.33 1.07l-.88 2.67h-1.1l-2.42-7.68h1.39l1.15 4.35.28 1.13a5.18 5.18 0 01.14.98h.03a5.22 5.22 0 01.2-.96l.34-1.1.83-2.52-.57-1.88h1.34l1.17 4.24.32 1.23a4.98 4.98 0 01.16 1h.03a7.46 7.46 0 01.16-1q.13-.59.3-1.23l1.14-4.24zm2.43 7.68h-1.3v-7.68h1.3zm-.64-9.54a.84.84 0 01-.64-.25.94.94 0 01-.24-.67.92.92 0 01.24-.66.84.84 0 01.64-.26.82.82 0 01.63.26.92.92 0 01.24.66.94.94 0 01-.24.67.82.82 0 01-.63.25zm5.94 3a.93.93 0 00-.21-.08 1.56 1.56 0 00-.43-.05 1.32 1.32 0 00-.95.33 1.92 1.92 0 00-.5.7v5.64h-1.3v-7.68h1.2v1.04h.02a2.54 2.54 0 01.21-.44 1.57 1.57 0 01.32-.38 1.42 1.42 0 01.46-.27 1.85 1.85 0 01.63-.1 1.65 1.65 0 01.44.05l.26.08zm4.5-.08h-1.68v4.25a2.08 2.08 0 00.2 1.11.8.8 0 00.7.3 1.38 1.38 0 00.5-.08 1.65 1.65 0 00.3-.14l.18 1.04a2.2 2.2 0 01-.38.2 2.03 2.03 0 01-.82.14 1.9 1.9 0 01-1.49-.56 2.72 2.72 0 01-.5-1.83v-4.43h-.92V21l.93-.19.14-2.14h1.15v2.14h1.84zm4.72.5a3.26 3.26 0 00-.47-.4 1.45 1.45 0 00-.88-.24 1.15 1.15 0 00-.78.24.74.74 0 00-.27.57 1.03 1.03 0 00.25.71 3.51 3.51 0 00.76.6l.48.3a4.72 4.72 0 011.23 1 2.26 2.26 0 01-.19 2.91 2.48 2.48 0 01-1.81.63 3.12 3.12 0 01-.82-.1 3.57 3.57 0 01-.61-.23 2.02 2.02 0 01-.44-.28 2.93 2.93 0 01-.3-.28l.63-1.02.23.22a2.1 2.1 0 00.33.25 2.01 2.01 0 00.43.2 1.77 1.77 0 00.56.08 1.33 1.33 0 00.88-.26.79.79 0 00.3-.62 1.4 1.4 0 00-.07-.47 1.08 1.08 0 00-.21-.36 2 2 0 00-.36-.3q-.2-.15-.48-.32l-.48-.3a4.63 4.63 0 01-1.12-.98 2.04 2.04 0 01-.41-1.31 1.83 1.83 0 01.64-1.42 2.3 2.3 0 01.71-.41 2.48 2.48 0 01.87-.15 2.92 2.92 0 01.77.08 2.3 2.3 0 01.55.23 2.39 2.39 0 01.39.27l.24.23zm6.5-.07l-.15-.14a1.61 1.61 0 00-.27-.2 1.84 1.84 0 00-.38-.16 1.67 1.67 0 00-.51-.07 1.97 1.97 0 00-.78.15 1.56 1.56 0 00-.62.49 2.5 2.5 0 00-.42.87 4.84 4.84 0 00-.15 1.3 6.31 6.31 0 00.13 1.42 2.69 2.69 0 00.38.92 1.4 1.4 0 00.58.5 1.86 1.86 0 00.76.15 1.63 1.63 0 00.9-.2 3.1 3.1 0 00.44-.34l.53.9a2.35 2.35 0 01-.23.23 2 2 0 01-.4.27 2.63 2.63 0 01-.58.21 3.21 3.21 0 01-.79.09 3.42 3.42 0 01-1.2-.2 2.37 2.37 0 01-.97-.7 3.45 3.45 0 01-.66-1.24 6.47 6.47 0 01-.24-1.9 5.35 5.35 0 01.29-1.88 3.49 3.49 0 01.75-1.24 2.87 2.87 0 011.03-.68 3.32 3.32 0 011.9-.14 2.52 2.52 0 01.56.2 1.85 1.85 0 01.39.26l.24.23zm6.02 6.19v-4.94a2.32 2.32 0 00-.33-1.4 1.19 1.19 0 00-1-.43 1.55 1.55 0 00-.96.29 3.53 3.53 0 00-.6.56v5.92h-1.3V17.19l1.3-.15v4.56h.03a2.98 2.98 0 01.2-.26 1.8 1.8 0 01.37-.32 2.59 2.59 0 01.59-.28 2.46 2.46 0 01.8-.12 2.05 2.05 0 011.6.66 3.22 3.22 0 01.6 2.18v5.04zm2.72-1.95a2.23 2.23 0 01.26-1.12 2.1 2.1 0 01.69-.73 2.94 2.94 0 011.01-.4 6.15 6.15 0 011.24-.12h.4v-.74a1.99 1.99 0 00-.34-1.34 1.26 1.26 0 00-.97-.37 1.74 1.74 0 00-.96.25 5.75 5.75 0 00-.6.44l-.55-.86a4.03 4.03 0 01.33-.3 2.75 2.75 0 01.48-.3 3.37 3.37 0 01.66-.23 3.3 3.3 0 01.83-.1 2.33 2.33 0 011.8.65 3.05 3.05 0 01.6 2.12v3.5q0 .5.03.96a6.04 6.04 0 00.07.64h-1.23l-.05-.85h-.03a2.05 2.05 0 01-.2.33 1.58 1.58 0 01-.31.33 1.92 1.92 0 01-.47.27 1.67 1.67 0 01-.64.1 2.04 2.04 0 01-.8-.15 1.99 1.99 0 01-1.1-1.13 2.35 2.35 0 01-.15-.85zm2.32 1.04a1.33 1.33 0 00.48-.08 1.53 1.53 0 00.36-.2 1.26 1.26 0 00.26-.24l.18-.23v-1.7l-.41.01a2.98 2.98 0 00-1.41.32 1 1 0 00-.48.93 1.27 1.27 0 00.27.89.97.97 0 00.75.3zm7.68-5.71h-1.57v6.62h-1.3v-6.62h-.92V21l.93-.17V19.3a2.93 2.93 0 01.17-1.07 2.12 2.12 0 01.47-.74 1.7 1.7 0 01.67-.41 2.56 2.56 0 01.82-.13 1.95 1.95 0 01.7.11 2.33 2.33 0 01.38.18l-.27 1.07a1.6 1.6 0 00-.27-.14 1.14 1.14 0 00-.44-.07.86.86 0 00-.7.29 1.7 1.7 0 00-.24 1.05v1.38h1.73zm4.5 0h-1.68v4.25a2.08 2.08 0 00.21 1.11.8.8 0 00.7.3 1.38 1.38 0 00.5-.08 1.65 1.65 0 00.3-.14l.18 1.04a2.2 2.2 0 01-.39.2 2.03 2.03 0 01-.81.14 1.9 1.9 0 01-1.5-.56 2.72 2.72 0 01-.5-1.83v-4.43h-.92V21l.93-.19.14-2.14h1.15v2.14h1.84zm2.69 4.83a1.22 1.22 0 00.14.67.54.54 0 00.47.2 1.17 1.17 0 00.3-.04 1.01 1.01 0 00.18-.06l.11.96a2.72 2.72 0 01-.35.12 2.38 2.38 0 01-.69.08 1.43 1.43 0 01-1.05-.4 2 2 0 01-.4-1.42v-9.63l1.3-.15zm3.6 1.79h-1.3v-7.68h1.3zm-.64-9.54a.84.84 0 01-.64-.25.94.94 0 01-.24-.67.92.92 0 01.24-.66.84.84 0 01.64-.26.82.82 0 01.62.26.92.92 0 01.24.66.94.94 0 01-.24.67.82.82 0 01-.62.25zm6.83 3.35l-.15-.15a1.61 1.61 0 00-.27-.19 1.84 1.84 0 00-.38-.17 1.67 1.67 0 00-.51-.07 1.97 1.97 0 00-.78.15 1.56 1.56 0 00-.62.5 2.5 2.5 0 00-.42.86 4.84 4.84 0 00-.15 1.3 6.31 6.31 0 00.13 1.43 2.69 2.69 0 00.38.92 1.4 1.4 0 00.58.5 1.86 1.86 0 00.76.15 1.63 1.63 0 00.9-.2 3.1 3.1 0 00.44-.34l.53.9a2.35 2.35 0 01-.23.23 2 2 0 01-.4.26 2.63 2.63 0 01-.58.22 3.21 3.21 0 01-.79.09 3.42 3.42 0 01-1.2-.21 2.37 2.37 0 01-.97-.69 3.45 3.45 0 01-.66-1.25 6.47 6.47 0 01-.24-1.9 5.35 5.35 0 01.29-1.87 3.49 3.49 0 01.75-1.24 2.87 2.87 0 011.03-.69 3.32 3.32 0 011.9-.13 2.53 2.53 0 01.56.2 1.85 1.85 0 01.39.25l.24.23zm6.03 6.19v-4.94a2.32 2.32 0 00-.33-1.4 1.19 1.19 0 00-1-.43 1.55 1.55 0 00-.96.29 3.53 3.53 0 00-.6.56v5.92h-1.3V17.19l1.3-.15v4.56h.03a2.98 2.98 0 01.2-.26 1.8 1.8 0 01.37-.32 2.59 2.59 0 01.59-.28 2.46 2.46 0 01.8-.12 2.05 2.05 0 011.6.66 3.22 3.22 0 01.6 2.18v5.04zm8.1-5.09q0 .5-.03.86t-.07.63h-3.92a3.42 3.42 0 00.58 2 1.82 1.82 0 001.5.64 2.15 2.15 0 00.61-.08 2.27 2.27 0 00.81-.42q.14-.1.2-.17l.48.91-.24.23a2.16 2.16 0 01-.43.3 3.1 3.1 0 01-.67.27 3.52 3.52 0 01-.95.1 3.4 3.4 0 01-1.3-.23 2.47 2.47 0 01-.99-.75 3.6 3.6 0 01-.63-1.28 6.78 6.78 0 01-.23-1.86 5.97 5.97 0 01.24-1.77 3.53 3.53 0 01.63-1.22 2.52 2.52 0 01.93-.71 2.8 2.8 0 011.13-.24 2.2 2.2 0 011.73.7 3.04 3.04 0 01.62 2.1zm-2.44-1.73a1.3 1.3 0 00-1.1.58 3.15 3.15 0 00-.48 1.66h2.8a1.73 1.73 0 00.02-.23l.01-.33a2.08 2.08 0 00-.32-1.24 1.08 1.08 0 00-.93-.44zm13.36-3.36l-4.69 9v.03h5.09l-.1 1.15h-6.78v-.86l4.84-9.04v-.04h-4.58v-1.1h6.22zm6.96 10.18h-1.18v-.86h-.03a1.57 1.57 0 01-.21.28 2.09 2.09 0 01-.4.35 2.73 2.73 0 01-.6.3 2.28 2.28 0 01-.8.13 2.62 2.62 0 01-.91-.16 1.67 1.67 0 01-.7-.48 2.27 2.27 0 01-.44-.88 4.9 4.9 0 01-.15-1.32v-5.04h1.3v4.94a2.3 2.3 0 00.3 1.37 1.14 1.14 0 00.98.41 1.56 1.56 0 00.94-.28 3.31 3.31 0 00.6-.55v-5.89h1.3zm5.24-6.13a3.26 3.26 0 00-.47-.39 1.45 1.45 0 00-.88-.25 1.15 1.15 0 00-.78.24.74.74 0 00-.27.58 1.03 1.03 0 00.24.71 3.51 3.51 0 00.76.6l.48.29a4.72 4.72 0 011.24 1 2.26 2.26 0 01-.19 2.92 2.48 2.48 0 01-1.81.62 3.12 3.12 0 01-.82-.1 3.57 3.57 0 01-.62-.22 2.02 2.02 0 01-.44-.28 2.93 2.93 0 01-.28-.28l.62-1.03.23.23a2.1 2.1 0 00.33.25 2.01 2.01 0 00.43.2 1.77 1.77 0 00.56.08 1.33 1.33 0 00.88-.26.79.79 0 00.3-.62 1.4 1.4 0 00-.07-.48 1.08 1.08 0 00-.22-.36 2 2 0 00-.35-.3l-.48-.32-.48-.3a4.63 4.63 0 01-1.13-.97 2.04 2.04 0 01-.4-1.31 1.83 1.83 0 01.64-1.42 2.3 2.3 0 01.7-.42 2.48 2.48 0 01.88-.15 2.92 2.92 0 01.77.09 2.3 2.3 0 01.55.22 2.39 2.39 0 01.38.28q.16.13.25.23zm1.77 4.18a2.23 2.23 0 01.26-1.12 2.1 2.1 0 01.69-.73 2.94 2.94 0 011.01-.4 6.15 6.15 0 011.24-.12h.4v-.74a1.99 1.99 0 00-.34-1.34 1.26 1.26 0 00-.97-.37 1.74 1.74 0 00-.96.25 5.75 5.75 0 00-.6.44l-.55-.86a4.03 4.03 0 01.33-.3 2.75 2.75 0 01.48-.3 3.37 3.37 0 01.66-.23 3.3 3.3 0 01.83-.1 2.33 2.33 0 011.8.65 3.05 3.05 0 01.6 2.12v3.5q0 .5.03.96a6.04 6.04 0 00.07.64h-1.23l-.05-.85h-.03a2.05 2.05 0 01-.2.33 1.58 1.58 0 01-.31.33 1.92 1.92 0 01-.47.27 1.67 1.67 0 01-.64.1 2.04 2.04 0 01-.8-.15 1.99 1.99 0 01-1.1-1.13 2.35 2.35 0 01-.15-.85zm2.32 1.04a1.33 1.33 0 00.48-.08 1.53 1.53 0 00.36-.2 1.26 1.26 0 00.26-.24l.18-.23v-1.7l-.41.01a2.98 2.98 0 00-1.41.32 1 1 0 00-.48.93 1.27 1.27 0 00.27.89.97.97 0 00.75.3zm8.48.91v-4.94a2.57 2.57 0 00-.27-1.36.97.97 0 00-.88-.42 1.85 1.85 0 00-.57.08 1.97 1.97 0 00-.44.2 1.89 1.89 0 00-.33.26l-.24.26v5.92h-1.3v-7.68h1.18v.86h.03a2.61 2.61 0 01.24-.3 2.2 2.2 0 01.4-.36 2.29 2.29 0 01.56-.28 2.17 2.17 0 01.72-.11 1.93 1.93 0 011.86 1.02 2.38 2.38 0 01.3-.34 2.46 2.46 0 01.45-.34 2.57 2.57 0 01.57-.25 2.44 2.44 0 01.7-.1q2.34 0 2.34 2.72v5.16h-1.3v-4.94a2.17 2.17 0 00-.34-1.36 1.2 1.2 0 00-.99-.42 1.49 1.49 0 00-.9.26 3.46 3.46 0 00-.57.5l.05.38q.02.2.02.42v5.16zm11.23 0v-4.94a2.57 2.57 0 00-.27-1.36.97.97 0 00-.88-.42 1.85 1.85 0 00-.57.08 1.97 1.97 0 00-.44.2 1.89 1.89 0 00-.33.26l-.24.26v5.92h-1.3v-7.68h1.18v.86h.03a2.61 2.61 0 01.24-.3 2.2 2.2 0 01.4-.36 2.29 2.29 0 01.56-.28 2.17 2.17 0 01.72-.11 1.93 1.93 0 011.86 1.02 2.38 2.38 0 01.3-.34 2.46 2.46 0 01.45-.34 2.57 2.57 0 01.57-.25 2.44 2.44 0 01.7-.1q2.34 0 2.34 2.72v5.16h-1.3v-4.94a2.17 2.17 0 00-.34-1.36 1.2 1.2 0 00-.99-.42 1.49 1.49 0 00-.9.26 3.46 3.46 0 00-.57.5q.04.18.05.38t.02.42v5.16zm12.13-5.09q0 .5-.03.86t-.06.63h-3.92a3.42 3.42 0 00.58 2 1.82 1.82 0 001.5.64 2.15 2.15 0 00.6-.08 2.27 2.27 0 00.82-.42l.2-.17.48.91-.24.23a2.16 2.16 0 01-.44.3 3.1 3.1 0 01-.67.27 3.52 3.52 0 01-.94.1 3.4 3.4 0 01-1.3-.23 2.47 2.47 0 01-1-.75 3.6 3.6 0 01-.63-1.28 6.78 6.78 0 01-.22-1.86 5.97 5.97 0 01.23-1.77 3.53 3.53 0 01.63-1.22 2.52 2.52 0 01.93-.71 2.8 2.8 0 011.14-.24 2.2 2.2 0 011.73.7 3.04 3.04 0 01.61 2.1zm-2.43-1.73a1.3 1.3 0 00-1.1.58 3.15 3.15 0 00-.48 1.66h2.8a1.73 1.73 0 00.02-.23l.01-.33a2.08 2.08 0 00-.32-1.24 1.08 1.08 0 00-.93-.44zm8.29 6.82v-4.94a2.32 2.32 0 00-.33-1.4 1.19 1.19 0 00-1-.43 1.55 1.55 0 00-.96.29 3.53 3.53 0 00-.6.56v5.92h-1.3v-7.68h1.18v.86h.03a1.57 1.57 0 01.2-.28 2 2 0 01.42-.35 2.93 2.93 0 01.61-.3 2.33 2.33 0 01.8-.13 2.69 2.69 0 01.93.16 1.67 1.67 0 01.7.48 2.36 2.36 0 01.45.88 4.67 4.67 0 01.16 1.32v5.04zm2.72-1.95a2.23 2.23 0 01.25-1.12 2.1 2.1 0 01.7-.73 2.94 2.94 0 011-.4 6.15 6.15 0 011.25-.12h.4v-.74a1.99 1.99 0 00-.35-1.34 1.26 1.26 0 00-.96-.37 1.74 1.74 0 00-.96.25 5.75 5.75 0 00-.61.44l-.55-.86a4.04 4.04 0 01.33-.3 2.75 2.75 0 01.49-.3 3.37 3.37 0 01.66-.23 3.3 3.3 0 01.83-.1 2.33 2.33 0 011.79.65 3.05 3.05 0 01.6 2.12v3.5q0 .5.04.96a6.04 6.04 0 00.06.64h-1.23l-.05-.85h-.03a2.05 2.05 0 01-.19.33 1.58 1.58 0 01-.32.33 1.92 1.92 0 01-.46.27 1.67 1.67 0 01-.64.1 2.04 2.04 0 01-.81-.15 1.99 1.99 0 01-1.09-1.13 2.35 2.35 0 01-.15-.85zm2.32 1.04a1.33 1.33 0 00.48-.08 1.53 1.53 0 00.36-.2 1.26 1.26 0 00.25-.24q.1-.14.19-.23v-1.7l-.42.01a2.98 2.98 0 00-1.4.32 1 1 0 00-.49.93 1.27 1.27 0 00.28.89.97.97 0 00.75.3zm7.82-5.63a.93.93 0 00-.2-.08 1.56 1.56 0 00-.44-.05 1.32 1.32 0 00-.95.33 1.92 1.92 0 00-.49.7v5.64h-1.3v-7.68h1.19v1.04h.03a2.53 2.53 0 01.2-.44 1.57 1.57 0 01.33-.38 1.42 1.42 0 01.45-.27 1.85 1.85 0 01.63-.1 1.65 1.65 0 01.44.05l.27.08zm6.95 2.35a6.37 6.37 0 01-.3 2.06 3.63 3.63 0 01-.76 1.34 2.74 2.74 0 01-1.12.72 4.22 4.22 0 01-1.36.21 3.59 3.59 0 01-.83-.08 3.76 3.76 0 01-.64-.21 2.74 2.74 0 01-.46-.25l-.28-.2V17.2l1.3-.12v4.48h.03a1.89 1.89 0 01.24-.29 2.03 2.03 0 01.37-.3 2.17 2.17 0 01.54-.24 2.36 2.36 0 01.7-.1 2.26 2.26 0 011.88.89 4.52 4.52 0 01.69 2.79zm-1.35.16a3.87 3.87 0 00-.43-2.09 1.35 1.35 0 00-1.18-.65 1.5 1.5 0 00-.94.26 3.5 3.5 0 00-.55.53v4.72a2.5 2.5 0 00.38.2 1.44 1.44 0 00.58.1 2.35 2.35 0 00.85-.16 1.61 1.61 0 00.68-.5 2.6 2.6 0 00.45-.96 5.67 5.67 0 00.16-1.45zm7.86-1.06q0 .5-.03.86t-.07.63h-3.92a3.42 3.42 0 00.59 2 1.82 1.82 0 001.5.64 2.15 2.15 0 00.6-.08 2.27 2.27 0 00.81-.42q.14-.1.2-.17l.48.91-.24.23a2.16 2.16 0 01-.43.3 3.1 3.1 0 01-.67.27 3.52 3.52 0 01-.95.1 3.4 3.4 0 01-1.3-.23 2.47 2.47 0 01-.99-.75 3.6 3.6 0 01-.63-1.28 6.78 6.78 0 01-.22-1.86 5.97 5.97 0 01.23-1.77 3.53 3.53 0 01.63-1.22 2.52 2.52 0 01.93-.71 2.8 2.8 0 011.13-.24 2.2 2.2 0 011.73.7 3.04 3.04 0 01.62 2.1zm-2.43-1.73a1.3 1.3 0 00-1.1.58 3.15 3.15 0 00-.48 1.66h2.8a1.73 1.73 0 00.02-.23v-.33a2.08 2.08 0 00-.31-1.24 1.08 1.08 0 00-.93-.44zm5.39 6.82h-1.3v-7.68h1.3zm-.64-9.54a.84.84 0 01-.64-.25.94.94 0 01-.24-.67.92.92 0 01.24-.66.84.84 0 01.64-.26.82.82 0 01.62.26.92.92 0 01.24.66.94.94 0 01-.24.67.82.82 0 01-.62.25zm5.84 2.92h-1.68v4.25a2.08 2.08 0 00.2 1.11.8.8 0 00.7.3 1.38 1.38 0 00.5-.08 1.65 1.65 0 00.3-.14l.18 1.04a2.2 2.2 0 01-.38.2 2.03 2.03 0 01-.82.14 1.9 1.9 0 01-1.49-.56 2.72 2.72 0 01-.5-1.83v-4.43h-.92V21l.92-.19.15-2.14h1.15v2.14h1.84zM59.87 44.5h-1.19v-.86h-.03a1.57 1.57 0 01-.2.28 2.09 2.09 0 01-.41.35 2.73 2.73 0 01-.6.3 2.28 2.28 0 01-.79.13 2.62 2.62 0 01-.92-.16 1.67 1.67 0 01-.7-.48 2.27 2.27 0 01-.44-.88 4.9 4.9 0 01-.15-1.32v-5.04h1.3v4.94a2.3 2.3 0 00.31 1.37 1.14 1.14 0 00.97.41 1.56 1.56 0 00.94-.28 3.31 3.31 0 00.61-.55v-5.89h1.3zm6.11 0v-4.94a2.32 2.32 0 00-.33-1.4 1.19 1.19 0 00-1-.43 1.55 1.55 0 00-.96.29 3.53 3.53 0 00-.6.56v5.92h-1.3v-7.68h1.18v.86H63a1.57 1.57 0 01.2-.28 2 2 0 01.42-.35 2.93 2.93 0 01.61-.3 2.33 2.33 0 01.8-.13 2.69 2.69 0 01.93.16 1.67 1.67 0 01.7.48 2.36 2.36 0 01.45.88 4.67 4.67 0 01.16 1.32v5.04zm2.82-3.73a5.44 5.44 0 01.3-1.95 3.6 3.6 0 01.78-1.26 2.73 2.73 0 011.1-.68 3.87 3.87 0 011.2-.2 3.2 3.2 0 01.65.05 2.14 2.14 0 01.45.14v-3.68l1.3-.15V44.5h-1.2v-.82h-.02a1.84 1.84 0 01-.18.27 1.78 1.78 0 01-.35.33 2.12 2.12 0 01-.56.3 2.33 2.33 0 01-.79.11 2.52 2.52 0 01-1.03-.21 2.23 2.23 0 01-.85-.7 3.59 3.59 0 01-.59-1.2 6.52 6.52 0 01-.21-1.8zm3.04 2.77a1.72 1.72 0 00.54-.08 1.68 1.68 0 00.42-.2 1.77 1.77 0 00.3-.25 1.81 1.81 0 00.18-.22v-4.74a1.93 1.93 0 00-.4-.19 1.81 1.81 0 00-.59-.08 2.3 2.3 0 00-.84.15 1.64 1.64 0 00-.68.5 2.6 2.6 0 00-.45.91 4.85 4.85 0 00-.17 1.38 5.54 5.54 0 00.13 1.34 2.5 2.5 0 00.38.86 1.45 1.45 0 00.54.47 1.48 1.48 0 00.64.15zm13.58-8.98h-3.94v3.81h3.62v1.1h-3.62v3.87h4.34l-.08 1.16h-5.65V33.46h5.43zm6.11 9.94v-4.94a2.32 2.32 0 00-.33-1.4 1.19 1.19 0 00-1-.43 1.55 1.55 0 00-.96.29 3.53 3.53 0 00-.6.56v5.92h-1.3v-7.68h1.18v.86h.03a1.57 1.57 0 01.21-.28 2 2 0 01.42-.35 2.93 2.93 0 01.6-.3 2.33 2.33 0 01.8-.13 2.69 2.69 0 01.93.16 1.67 1.67 0 01.7.48 2.36 2.36 0 01.45.88 4.67 4.67 0 01.16 1.32v5.04zm6.45-6.62H96.3v4.25a2.08 2.08 0 00.2 1.11.8.8 0 00.7.3 1.38 1.38 0 00.5-.08 1.65 1.65 0 00.3-.14l.18 1.04a2.2 2.2 0 01-.38.2 2.03 2.03 0 01-.82.14 1.9 1.9 0 01-1.48-.56 2.72 2.72 0 01-.5-1.83v-4.43h-.93V37l.93-.19.14-2.14h1.16v2.14h1.84zm10.26-1.06l-2.34 7.68h-1.15l-.79-2.69-.3-1.07a5.77 5.77 0 01-.15-.94h-.03a4.83 4.83 0 01-.18.96q-.14.5-.33 1.07l-.88 2.67H101l-2.41-7.68h1.39l1.15 4.35.28 1.13a5.18 5.18 0 01.14.98h.03a5.22 5.22 0 01.2-.96l.34-1.1.83-2.52-.57-1.88h1.34l1.17 4.24q.18.65.32 1.23a4.98 4.98 0 01.16.99h.03a7.46 7.46 0 01.16-1q.13-.58.3-1.22l1.14-4.24zm2.43 7.68h-1.3v-7.68h1.3zm-.64-9.54a.84.84 0 01-.64-.25.94.94 0 01-.24-.67.92.92 0 01.24-.66.84.84 0 01.64-.26.82.82 0 01.62.26.92.92 0 01.24.66.94.94 0 01-.24.67.82.82 0 01-.62.25zm6.83 3.35l-.15-.15a1.61 1.61 0 00-.27-.19 1.84 1.84 0 00-.38-.17 1.67 1.67 0 00-.51-.07 1.97 1.97 0 00-.78.15 1.56 1.56 0 00-.62.5 2.5 2.5 0 00-.42.86 4.84 4.84 0 00-.15 1.3 6.31 6.31 0 00.14 1.43 2.69 2.69 0 00.37.92 1.4 1.4 0 00.59.5 1.86 1.86 0 00.76.15 1.63 1.63 0 00.9-.2 3.1 3.1 0 00.44-.34l.52.9a2.35 2.35 0 01-.23.23 2 2 0 01-.39.26 2.63 2.63 0 01-.58.22 3.21 3.21 0 01-.8.09 3.42 3.42 0 01-1.2-.21 2.37 2.37 0 01-.97-.69 3.45 3.45 0 01-.66-1.25 6.47 6.47 0 01-.24-1.9 5.35 5.35 0 01.29-1.87 3.49 3.49 0 01.75-1.24 2.87 2.87 0 011.03-.69 3.32 3.32 0 011.9-.13 2.53 2.53 0 01.56.2 1.85 1.85 0 01.39.25l.25.23zm4.74 2.03l2.64 4.16h-1.56l-2.16-3.58H120v3.58h-1.3V33.19l1.3-.15v6.77h.54l2.06-2.99h1.54zm5 2.37a1.22 1.22 0 00.14.67.54.54 0 00.47.2 1.17 1.17 0 00.3-.04 1.01 1.01 0 00.18-.06l.11.96a2.72 2.72 0 01-.35.12 2.38 2.38 0 01-.69.08 1.43 1.43 0 01-1.05-.4 2 2 0 01-.4-1.42v-9.63l1.3-.15zm7.68 1.79h-1.18v-.86h-.03a1.57 1.57 0 01-.21.28 2.09 2.09 0 01-.4.35 2.73 2.73 0 01-.6.3 2.28 2.28 0 01-.8.13 2.62 2.62 0 01-.91-.16 1.67 1.67 0 01-.7-.48 2.27 2.27 0 01-.44-.88 4.9 4.9 0 01-.15-1.32v-5.04h1.3v4.94a2.3 2.3 0 00.3 1.37 1.14 1.14 0 00.98.41 1.56 1.56 0 00.94-.28 3.31 3.31 0 00.6-.55v-5.89h1.3zm6.12 0v-4.94a2.32 2.32 0 00-.33-1.4 1.19 1.19 0 00-1-.43 1.55 1.55 0 00-.96.29 3.53 3.53 0 00-.6.56v5.92h-1.31v-7.68h1.18v.86h.04a1.57 1.57 0 01.2-.28 2 2 0 01.42-.35 2.93 2.93 0 01.6-.3 2.33 2.33 0 01.8-.13 2.69 2.69 0 01.94.16 1.67 1.67 0 01.7.48 2.36 2.36 0 01.44.88 4.67 4.67 0 01.16 1.32v5.04zm8.67-6.67h-.96a2.6 2.6 0 01.37 1.37 2.87 2.87 0 01-.2 1.1 2.3 2.3 0 01-.56.83 2.44 2.44 0 01-.85.51 3.07 3.07 0 01-1.05.18h-.2a1.48 1.48 0 01-.22-.02 1.56 1.56 0 00-.4.26.58.58 0 00-.2.46.48.48 0 00.18.4.94.94 0 00.6.14h.97a4.3 4.3 0 011.01.12 2.28 2.28 0 01.8.36 1.7 1.7 0 01.54.63 2.06 2.06 0 01.2.93 2.44 2.44 0 01-.27 1.13 2.6 2.6 0 01-.74.88 3.62 3.62 0 01-1.17.58 5.3 5.3 0 01-1.54.2 2.85 2.85 0 01-1.87-.53 1.9 1.9 0 01-.64-1.54 1.68 1.68 0 01.15-.75 2.35 2.35 0 01.36-.54 2.03 2.03 0 01.43-.37l.34-.22v-.03a1.25 1.25 0 01-.5-1.07 1.1 1.1 0 01.12-.53 1.43 1.43 0 01.27-.37 1.65 1.65 0 01.3-.23 1.99 1.99 0 01.24-.12v-.03a2.17 2.17 0 01-.96-.86 2.81 2.81 0 01-.36-1.5 2.86 2.86 0 01.21-1.12 2.28 2.28 0 01.56-.81 2.31 2.31 0 01.83-.48 3.15 3.15 0 011.01-.16 2.73 2.73 0 011.03.19h2.33zm-3.57 6.43a3.24 3.24 0 01-.6-.05 1.87 1.87 0 00-.27.2 1.36 1.36 0 00-.25.27 1.45 1.45 0 00-.18.37 1.6 1.6 0 00-.08.5q0 1.23 1.36 1.23a2.71 2.71 0 001.73-.45 1.33 1.33 0 00.56-1.05.88.88 0 00-.35-.8 1.7 1.7 0 00-.94-.22zm1.71-5.06a1.53 1.53 0 00-.39-1.18 1.33 1.33 0 00-.92-.36 1.4 1.4 0 00-.96.36 1.95 1.95 0 000 2.36 1.43 1.43 0 001.88 0 1.53 1.53 0 00.4-1.18z"></path>
</g>
</svg>