<?xml version="1.0" encoding="UTF-8"?>
<!-- Generator: Adobe Illustrator 21.0.2, SVG Export Plug-In . SVG Version: 6.00 Build 0)  -->
<svg version="1.1" id="Ebene_1" xmlns="http://www.w3.org/2000/svg" xmlns:xlink="http://www.w3.org/1999/xlink" x="0px" y="0px" viewBox="0 0 538 349" style="enable-background:new 0 0 538 349;" xml:space="preserve">
<style type="text/css">
	.st0{fill:#868C89;}
	.st1{fill:#FFFFFF;}
</style>
<polygon class="st0" points="407,108 407,0 0,0 0,108 0,241 0,349 259,349 259,250 538,250 538,108 "/>
<path class="st1" d="M85.6,107.8V70.8l-11,19.1H62.5l-11-19.1v37.1h-19V30.5h18.7l17.4,34.1L86,30.5h18.7v77.4H85.6z M134,84.4  c0,4.8,3.7,9.1,10.3,9.1c6.2,0,8.9-1.7,12.1-4.9L167,99.3c-6,6-11.8,9.2-22.7,9.2c-12.9,0-27.8-4.7-27.8-29.9  c0-19.1,10.9-29.9,26.2-29.9c17,0,26.3,12.4,26.3,27.7v7.9H134z M150.4,68c-1.1-2.5-3.5-4.6-7.7-4.6S136,65.5,135,68  c-0.8,1.5-1,3.2-1,4.6h17.4C151.4,71.1,151.2,69.5,150.4,68z M213,107.8v-4.8c-3.6,3.6-7.4,5.4-13.5,5.4c-5.7,0-10.9-2-14.2-5.3  c-5.8-5.8-5.4-16-5.4-24.6c0-8.6-0.3-18.8,5.4-24.6c3.4-3.4,8.5-5.3,14.1-5.3c5.8,0,9.8,1.6,13,4.9V30.5h17.8v77.4H213z M205,64.8  c-6.6,0-7.4,5.3-7.4,13.8s0.8,13.8,7.4,13.8s7.4-5.3,7.4-13.8S211.7,64.8,205,64.8z M243.6,43.4V29.8h17.8v13.6H243.6z M243.6,107.8  V51.6h17.8v56.2H243.6z M290.8,84.4c0,4.8,3.7,9.1,10.3,9.1c6.2,0,8.9-1.7,12.1-4.9l10.7,10.7c-6,6-11.8,9.2-22.7,9.2  c-12.9,0-27.8-4.7-27.8-29.9c0-19.1,10.9-29.9,26.2-29.9c17,0,26.3,12.4,26.3,27.7v7.9H290.8z M307.2,68c-1.1-2.5-3.5-4.6-7.7-4.6  c-4.2,0-6.6,2.1-7.7,4.6c-0.8,1.5-1,3.2-1,4.6h17.4C308.1,71.1,307.9,69.5,307.2,68z M368.7,107.8v-35c0-6.7-4.8-8-7.2-8  s-7.2,1.3-7.2,8v35h-17.8V49.4h17.4v4.8c3.6-3.6,8.9-5.4,13.6-5.4c5.5,0,10,1.8,13.2,5c5,5,5.9,10.5,5.9,16.7v37.4H368.7z M71,317.9  l-21.6-34v34H32.8v-67.5h14.5l21.6,34v-34h16.6v67.5H71z M133.2,317.9l-11.9-25.1h-5.6v25.1H99.1v-67.5h26.7c15,0,23,10.6,23,21.7  c0,9.2-5.7,15-11,17.6l14.6,28.2H133.2z M125.1,265.2h-9.4v13.7h9.4c4.6,0,7.2-3.3,7.2-6.8C132.3,268.6,129.6,265.2,125.1,265.2z   M221.5,317.9H208l-10.9-33.3l-10.9,33.3h-13.5l-18.6-67.5h17.4l8.8,35.7l10.9-35.7H203l10.9,35.7l8.8-35.7H240L221.5,317.9z   M76.3,215.8l-24.8-38.9v38.9h-19v-77.4h16.6l24.8,38.9v-38.9h19v77.4H76.3z M122.1,192.4c0,4.8,3.7,9.1,10.3,9.1  c6.2,0,8.9-1.7,12.1-4.9l10.7,10.7c-6,6-11.8,9.2-22.7,9.2c-12.9,0-27.8-4.7-27.8-29.9c0-19.1,10.9-29.9,26.2-29.9  c17,0,26.3,12.4,26.3,27.7v7.9H122.1z M138.5,176c-1.1-2.5-3.5-4.6-7.7-4.6c-4.2,0-6.6,2.1-7.7,4.6c-0.8,1.5-1,3.2-1,4.6h17.4  C139.5,179.1,139.3,177.5,138.5,176z M188,215.8c-12.9,0-18.1-9.2-18.1-17.3v-25.2h-5.3v-13.7h5.3v-16.7h17.8v16.7h9.2v13.7h-9.2  v23.9c0,2.3,1.2,3.6,3.6,3.6h5.7v15H188z M205.6,215.8v-13.2l22.3-29.2h-21v-16.1h44.2v13.2l-22.7,29.2h22.7v16.1H205.6z   M325.3,215.8h-14.2l-10.5-32.1L290,215.8h-14.2l-17.6-58.5H277l7.3,30.3l10.1-30.3h12.4l10.1,30.3l7.3-30.3H343L325.3,215.8z   M364,192.4c0,4.8,3.7,9.1,10.3,9.1c6.2,0,8.9-1.7,12.1-4.9l10.7,10.7c-6,6-11.8,9.2-22.7,9.2c-12.9,0-27.8-4.7-27.8-29.9  c0-19.1,10.9-29.9,26.2-29.9c17,0,26.3,12.4,26.3,27.7v7.9H364z M380.5,176c-1.1-2.5-3.5-4.6-7.7-4.6c-4.2,0-6.6,2.1-7.7,4.6  c-0.8,1.5-1,3.2-1,4.6h17.4C381.4,179.1,381.2,177.5,380.5,176z M441.2,175.8c-1.7-1.7-3.4-3-6.4-3c-2.4,0-7.2,1.4-7.2,8v35h-17.8  v-58.5h17.4v4.8c2.6-2.6,7.7-5.4,13.8-5.4c5.8,0,9.7,1.4,13.7,5.4L441.2,175.8z M496.3,215.8l-12.2-21.4l-3.5,3.8v17.6h-17.8v-77.4  h17.8v39.3l15.8-20.4h21.4l-21.5,24.2l22.1,34.2H496.3z"/>
</svg>